<?xml version="1.0" encoding="utf-8"?>
<!-- Generator: Adobe Illustrator 24.0.0, SVG Export Plug-In . SVG Version: 6.00 Build 0)  -->
<svg version="1.1" id="Layer_1" xmlns="http://www.w3.org/2000/svg" xmlns:xlink="http://www.w3.org/1999/xlink" x="0px" y="0px"
	 viewBox="0 0 20.3 32.7" style="enable-background:new 0 0 20.3 32.7;" xml:space="preserve">
<style type="text/css">
	.st0{fill:#45B07B;}
	.st1{fill:#FFFFFF;}
</style>
<g>
	<path class="st0" d="M20.3,10.2C20.3,4.5,15.8,0,10.2,0S0,4.5,0,10.2c0,0,0,0.1,0,0.1l0,0c0,0.4,0,0.9,0.1,1.4c0,0,0,0,0,0.1
		c1.1,6.7,10.1,20.9,10.1,20.9s9-14.2,10.1-20.9c0,0,0,0,0-0.1c0.1-0.5,0.1-0.9,0.1-1.4l0,0C20.3,10.3,20.3,10.2,20.3,10.2z"/>
	<circle class="st1" cx="10.2" cy="10.2" r="5.3"/>
</g>
</svg>
