<?xml version="1.0" standalone="no"?>
<!DOCTYPE svg PUBLIC "-//W3C//DTD SVG 1.1//EN" "http://www.w3.org/Graphics/SVG/1.1/DTD/svg11.dtd" >
<svg>
<metadata>
Created by FontForge 20110222 at Sat Sep 28 15:50:30 2013
 By Orthosie Webhosting
Copyright (c) 1991 Adobe Systems Incorporated.  All Rights Reserved.ITC Avant Garde Gothic is a registered trademark of International Typeface Corporation.
</metadata>
<defs>
<font id="ITCAvantGardeGothicExtraLightExtraLight" horiz-adv-x="555" >
  <font-face 
    font-family="ITCAvantGardeGothicExtraLightExtraLight"
    font-weight="200"
    font-stretch="normal"
    units-per-em="1000"
    panose-1="2 11 3 0 0 0 0 0 0 0"
    ascent="800"
    descent="-200"
    x-height="530"
    cap-height="740"
    bbox="-103 -274 1117 951"
    underline-thickness="50"
    underline-position="-50"
    unicode-range="U+0020-2122"
  />
<missing-glyph horiz-adv-x="502" 
d="M-1 0h500v500h-500v-500zM9 10v480h480v-480h-480z" />
    <glyph glyph-name=".notdef" horiz-adv-x="502" 
d="M-1 0h500v500h-500v-500zM9 10v480h480v-480h-480z" />
    <glyph glyph-name=".null" horiz-adv-x="0" 
 />
    <glyph glyph-name="nonmarkingreturn" horiz-adv-x="333" 
 />
    <glyph glyph-name="space" unicode=" " horiz-adv-x="277" 
 />
    <glyph glyph-name="exclam" unicode="!" horiz-adv-x="259" 
d="M145 740h-30v-574h30v574zM145 81h-30v-81h30v81z" />
    <glyph glyph-name="quotedbl" unicode="&#x22;" horiz-adv-x="333" 
d="M124 444v296h-30v-296h30zM239 444v296h-30v-296h30z" />
    <glyph glyph-name="numbersign" unicode="#" 
d="M361 271h151l3 23h-152l19 137h152l3 23h-151l31 221h-24l-31 -221h-143l31 221h-24l-31 -221h-151l-4 -23h151l-19 -137h-151l-3 -23h151l-34 -240h25l33 240h143l-33 -240h24zM339 294h-143l20 137h143z" />
    <glyph glyph-name="dollar" unicode="$" 
d="M296 810h-30v-80q-69 -9 -111.5 -56t-42.5 -115q0 -40 14 -69t36.5 -48t46.5 -29.5t51 -18.5h2q44 -13 73 -23.5t54 -28t39.5 -46t14.5 -70.5q0 -32 -12 -61t-34 -51.5t-51.5 -34.5t-62.5 -12q-29 0 -57 9.5t-52.5 29t-40.5 50t-20 71.5h-30q5 -78 56 -130t127 -59v-95
h30v95q39 3 71.5 19t56 42.5t36.5 59t13 66.5q0 49 -17 83t-43 54t-51 30.5t-55 19.5h-2q-42 12 -68 21.5t-47.5 24.5t-34.5 40t-13 61q0 64 43.5 104t97.5 40q19 0 42 -7t44.5 -23t37.5 -42.5t20 -62.5h30q-2 27 -12 53.5t-29.5 49t-49.5 38.5t-70 21v80z" />
    <glyph glyph-name="percent" unicode="%" horiz-adv-x="719" 
d="M22 590q0 -71 46 -117t117 -46t117 46t46 117t-46 117t-117 46t-117 -46t-46 -117zM320 590q0 -60 -37.5 -99t-97.5 -39t-97.5 39t-37.5 99t37.5 99t97.5 39t97.5 -39t37.5 -99zM371 150q0 -71 46 -117t117 -46t117 46t46 117t-46 117t-117 46t-117 -46t-46 -117z
M669 150q0 -60 -37.5 -99t-97.5 -39t-97.5 39t-37.5 99t37.5 99t97.5 39t97.5 -39t37.5 -99zM603 740h-32l-457 -740h32z" />
    <glyph glyph-name="ampersand" unicode="&#x26;" horiz-adv-x="721" 
d="M643 467h-33l-125 -239l-184 188l4 2q42 19 68 32.5t48.5 33t35.5 46t13 62.5q0 32 -12.5 61t-35 51.5t-52.5 35.5t-64 13q-33 0 -61.5 -12.5t-50 -34.5t-33 -50.5t-11.5 -59.5q1 -39 15.5 -65t49.5 -65l38 -41q-35 -14 -69 -34t-63.5 -48t-47.5 -65.5t-18 -83.5
q0 -39 15 -76t42.5 -66.5t67 -47t87.5 -17.5q44 0 77 12.5t55.5 33t37 42t32.5 55.5v1l24 47l185 -189l21 20l-192 197zM470 200l-27 -56q-36 -72 -75.5 -100.5t-97.5 -28.5q-42 0 -76.5 14.5t-58.5 40t-36.5 57.5t-13.5 66q1 61 41 112.5t147 98.5zM231 491q-23 24 -37 50
t-14 59q0 46 34.5 85t92.5 40q58 -1 95.5 -40.5t37.5 -91.5q0 -56 -33.5 -85t-125.5 -70z" />
    <glyph glyph-name="quotesingle" unicode="'" horiz-adv-x="222" 
d="M126 444v296h-30v-296h30z" />
    <glyph glyph-name="parenleft" unicode="(" horiz-adv-x="425" 
d="M393 753q-64 -37 -117 -92t-92 -122.5t-60 -143.5t-21 -154q0 -111 40 -214t111 -185q34 -39 66 -64.5t73 -51.5v37q-54 33 -100.5 82.5t-82 112t-55.5 135t-20 148.5t20 148t55.5 134.5t82 112t100.5 82.5v35z" />
    <glyph glyph-name="parenright" unicode=")" horiz-adv-x="425" 
d="M32 -274q64 37 117.5 92t92 122.5t59.5 143.5t21 154q0 111 -40 214t-111 185q-34 39 -66 64.5t-73 51.5v-37q54 -33 101 -83t82 -112t55 -134.5t20 -148.5t-20 -148t-55.5 -134.5t-82 -112t-100.5 -83.5v-34z" />
    <glyph glyph-name="asterisk" unicode="*" horiz-adv-x="573" 
d="M301 740h-29v-123l-106 62l-15 -26l107 -60l-107 -62l15 -25l106 62v-124h29v123l108 -61l14 24l-107 63l105 61l-14 25l-106 -62v123z" />
    <glyph glyph-name="plus" unicode="+" horiz-adv-x="600" 
d="M314 501h-28v-237h-236v-28h236v-236h28v236h236v28h-236v237z" />
    <glyph glyph-name="comma" unicode="," horiz-adv-x="277" 
d="M156 82h-32l-63 -154h32z" />
    <glyph glyph-name="hyphen" unicode="-" horiz-adv-x="266" 
d="M0 291v-29h266v29h-266z" />
    <glyph glyph-name="period" unicode="." horiz-adv-x="277" 
d="M154 81h-30v-81h30v81z" />
    <glyph glyph-name="slash" unicode="/" horiz-adv-x="518" 
d="M451 740h-33l-351 -840h33z" />
    <glyph glyph-name="zero" unicode="0" 
d="M39 222q0 -64 24 -110t61 -73.5t78 -39.5t77 -12q29 0 68.5 11t78 37.5t64 73t25.5 113.5v296q0 52 -19 95.5t-52 75t-77 48t-93 16.5q-27 0 -65 -9.5t-77 -35.5t-66 -75t-27 -124v-287zM69 512q0 101 60 157.5t145 56.5q52 0 92.5 -18t66.5 -48t39 -67t13 -75v-296
q0 -57 -21 -97.5t-53.5 -65t-67.5 -35t-66 -10.5q-40 0 -77.5 14t-67 40.5t-46.5 66t-17 87.5v290z" />
    <glyph glyph-name="one" unicode="1" 
d="M305 740h-194v-27h164v-713h30v740z" />
    <glyph glyph-name="two" unicode="2" 
d="M504 27h-407l298 303q54 60 80 102.5t29 93.5q0 49 -16 91t-45 72.5t-68.5 47t-84.5 16.5q-39 0 -78 -14t-71 -43t-51.5 -75t-20.5 -107h30q2 102 56 157t131 55q39 0 73.5 -14t60.5 -40t40 -62t14 -79q-2 -45 -25.5 -87t-73.5 -92l-318 -325v-27h447v27z" />
    <glyph glyph-name="three" unicode="3" 
d="M39 215q0 -52 19 -95t51.5 -72.5t72.5 -45t82 -15.5q101 0 164 63q31 31 47.5 73.5t16.5 93.5q0 24 -7 52.5t-24 58t-47 55.5t-75 41v2q51 17 77.5 62.5t26.5 92.5q0 81 -51 126.5t-122 45.5q-66 0 -117.5 -44t-56.5 -124h30q4 59 43.5 100t103.5 41q61 0 100.5 -40.5
t39.5 -103.5q0 -17 -5.5 -40t-22 -47t-50 -41t-85.5 -17h-39v-27h40q54 0 94.5 -18.5t66.5 -48.5t38 -64.5t12 -67.5q0 -40 -13.5 -75.5t-39.5 -63t-62 -43t-80 -15.5q-34 0 -68.5 12t-63.5 37t-47 63.5t-19 88.5h-30z" />
    <glyph glyph-name="four" unicode="4" 
d="M434 740h-41l-376 -570v-26h387v-144h30v144h75v27h-75v569zM402 704h2v-533h-352z" />
    <glyph glyph-name="five" unicode="5" 
d="M141 740l-68 -354l26 -7q23 28 47.5 45.5t47.5 26.5t41 11.5t33 2.5q42 0 81.5 -17t70 -48t48 -73t17.5 -89q0 -45 -17 -86t-47.5 -72t-70 -48.5t-82.5 -17.5q-36 0 -72 13.5t-67 39.5t-51.5 64t-26.5 86h-30q6 -57 31 -101t61 -72.5t76.5 -42.5t77.5 -14q49 0 94 19
t79.5 54t54.5 81.5t20 99.5q0 49 -18 94.5t-51 81t-78.5 55.5t-97.5 20q-53 0 -89 -16.5t-70 -41.5v0l54 279h308v27h-332z" />
    <glyph glyph-name="six" unicode="6" 
d="M354 740h-34l-224 -326q-29 -43 -46 -85t-17 -100q0 -41 14.5 -83t45 -78.5t77 -58.5t107.5 -22q52 0 97 20t78 55.5t51 81.5t18 96q0 54 -19 100t-52.5 79.5t-77.5 51.5t-92 18q-35 0 -66 -11t-56 -27l-2 1zM63 231q0 60 20.5 104.5t54 72.5t71 41t72.5 13q37 0 74 -14
t68 -42.5t49.5 -71t18.5 -97.5q0 -45 -15.5 -85.5t-44.5 -71.5t-69 -48.5t-86 -17.5q-49 0 -88.5 17.5t-67.5 48t-42.5 69.5t-14.5 82z" />
    <glyph glyph-name="seven" unicode="7" 
d="M87 740v-27h361l-329 -713h31l330 713v27h-393z" />
    <glyph glyph-name="eight" unicode="8" 
d="M99 579q0 -51 30 -95t78 -65q-68 -22 -110.5 -79t-44.5 -131q1 -45 18.5 -86t48.5 -71.5t71.5 -47.5t86.5 -17t86.5 17t71.5 47.5t48.5 71t18.5 86.5q-1 74 -44 131.5t-111 78.5q48 21 78 65t30 95q0 36 -13.5 67.5t-38.5 56t-57.5 37.5t-68.5 13t-68.5 -14t-57 -38
t-38.5 -56t-14 -66zM129 578q0 62 43 105t105 43t105 -43t43 -105q0 -61 -43 -104t-105 -43t-105 43t-43 104zM82 209q0 40 15 76t41.5 62.5t62.5 41.5t76 15t76 -15t62.5 -41.5t41.5 -62.5t15 -76t-15 -76t-41.5 -62.5t-62.5 -41.5t-76 -15t-76 15t-62.5 41.5t-41.5 62.5
t-15 76z" />
    <glyph glyph-name="nine" unicode="9" 
d="M201 0h34l224 326q29 43 46 85t17 100q0 41 -14.5 83.5t-45 78.5t-77 58t-107.5 22q-52 0 -97 -20t-78 -55.5t-51 -81.5t-18 -96q0 -54 19 -100t52.5 -79.5t77.5 -51.5t92 -18q34 0 70 12q32 12 52 26l2 -1zM492 509q0 -60 -20.5 -104.5t-54 -72.5t-71 -41t-72.5 -13
q-37 0 -74 14t-68 42.5t-49.5 71t-18.5 97.5q0 45 15.5 85.5t44.5 71.5t69 48.5t86 17.5q49 0 88.5 -17.5t67.5 -48t42.5 -69.5t14.5 -82z" />
    <glyph glyph-name="colon" unicode=":" horiz-adv-x="277" 
d="M154 81h-30v-81h30v81zM154 530h-30v-81h30v81z" />
    <glyph glyph-name="semicolon" unicode=";" horiz-adv-x="277" 
d="M156 82h-32l-63 -154h32zM153 530h-30v-81h30v81z" />
    <glyph glyph-name="less" unicode="&#x3c;" horiz-adv-x="600" 
d="M50 267v-32l500 -235v31l-467 220l467 220v31z" />
    <glyph glyph-name="equal" unicode="=" horiz-adv-x="600" 
d="M50 361v-28h500v28h-500zM50 167v-28h500v28h-500z" />
    <glyph glyph-name="greater" unicode="&#x3e;" horiz-adv-x="600" 
d="M50 31v-31l500 235v32l-500 235v-31l467 -220z" />
    <glyph glyph-name="question" unicode="?" horiz-adv-x="536" 
d="M273 166q0 51 13 93.5t62 90.5l5 5q56 53 85 94.5t29 92.5q0 46 -17 84.5t-47 67t-68 43.5t-80 15q-32 0 -68 -11t-68.5 -35.5t-54 -65t-24.5 -97.5h30q2 47 19.5 81.5t45 55.5t59 31t62.5 10q39 0 72 -14t57.5 -38.5t38 -56.5t13.5 -68q-2 -44 -21 -73.5t-60 -70.5
l-22 -22q-31 -30 -49.5 -57.5t-27 -53t-11 -47.5t-3.5 -54h30zM272 81h-29v-81h29v81z" />
    <glyph glyph-name="at" unicode="@" horiz-adv-x="796" 
d="M723 187q-22 -44 -57.5 -77.5t-77.5 -54.5t-86 -31.5t-85 -10.5q-67 0 -130 25t-112 71.5t-77.5 112t-28.5 143.5q0 79 28.5 146t78.5 115.5t115 74.5t136 26q56 0 111.5 -18t101.5 -54t73 -90.5t27 -124.5q0 -59 -20.5 -107t-53 -80.5t-68 -49t-64.5 -16.5
q-21 0 -38 9.5t-17 40.5q0 11 3 22t8 24l2 5l96 272h-28l-23 -67h-2q-2 13 -8 26.5t-18 26.5t-32 21.5t-48 8.5q-40 0 -78.5 -24t-68.5 -64.5t-47.5 -91t-17.5 -101.5q0 -38 11 -64t28.5 -40.5t35.5 -20t33 -5.5q47 0 78 21t49 50h2q0 -25 9 -40.5t22.5 -23t25.5 -9.5t22 -2
q30 0 69.5 17t78 52t63 88.5t24.5 122.5q0 74 -29.5 133t-79.5 98.5t-111 60t-123 20.5q-80 0 -150 -30t-123 -83.5t-82 -124.5t-29 -150q0 -78 28.5 -147t80.5 -121t121 -81t147 -29q44 0 92 11.5t94 35.5t84 62.5t60 90.5h-25zM475 324q-6 -20 -16.5 -41.5t-27.5 -42.5
t-43 -35t-61 -14q-14 0 -28 5t-26.5 16.5t-20 32t-7.5 50.5q0 51 17 97.5t45 82t60.5 55.5t63.5 20q12 0 27 -4.5t28.5 -14.5t22.5 -27.5t10 -41.5q0 -13 -2.5 -23t-9.5 -30l-4 -12z" />
    <glyph glyph-name="A" unicode="A" horiz-adv-x="687" 
d="M150 258h387l111 -258h32l-317 740h-39l-317 -740h32zM343 712l181 -427h-361z" />
    <glyph glyph-name="B" unicode="B" horiz-adv-x="540" 
d="M77 740v-740h185q69 0 118 17q56 24 86 69t31 111q0 20 -5 45t-19.5 54.5t-45 55t-78.5 39.5v2q35 15 56.5 39t31 48t12 41.5t2.5 32.5q0 48 -20 91t-67 68q-23 14 -54 20.5t-76 6.5h-157zM107 713h127q44 -1 69 -6.5t43 -15.5q31 -14 53 -50t22 -83q0 -45 -16 -79.5
t-59 -58.5q-35 -19 -105 -19h-134v312zM107 374h134q50 0 74 -3t52 -15q46 -20 73 -62t27 -97q-1 -59 -27 -97t-71 -57q-44 -16 -106 -16h-156v347z" />
    <glyph glyph-name="C" unicode="C" horiz-adv-x="786" 
d="M714 161q-12 -17 -34 -40t-58 -48t-86.5 -42t-110.5 -17q-73 0 -137.5 26.5t-113 75t-76 114t-27.5 140.5t27.5 140.5t76 114t113 75t137.5 26.5q57 0 106 -17t85.5 -41.5t60 -48.5t37.5 -44h35q-22 34 -53 65t-72 56.5t-91.5 41t-107.5 15.5q-79 0 -149 -28.5t-123 -80
t-82.5 -122.5t-29.5 -152t29.5 -152t82.5 -122.5t123 -80t149 -28.5q56 0 107 14.5t92.5 39.5t73 56t50.5 64h-34z" />
    <glyph glyph-name="D" unicode="D" horiz-adv-x="701" 
d="M77 0h209q175 0 274 98t99 272t-99 272t-274 98h-209v-740zM107 713h179q163 0 253 -91.5t90 -253.5q0 -160 -91 -250.5t-252 -90.5h-179v686z" />
    <glyph glyph-name="E" unicode="E" horiz-adv-x="547" 
d="M77 740v-740h406v27h-376v332h376v27h-376v327h376v27h-406z" />
    <glyph glyph-name="F" unicode="F" horiz-adv-x="477" 
d="M77 740v-740h30v359h333v27h-333v327h333v27h-363z" />
    <glyph glyph-name="G" unicode="G" horiz-adv-x="853" 
d="M342 313v-27h441q-10 -51 -41 -100.5t-78.5 -88t-109 -61t-129.5 -22.5q-73 0 -137.5 26.5t-113 75t-76 114t-27.5 140.5t27.5 140.5t76 114t113 75t137.5 26.5q91 0 167.5 -38.5t132.5 -111.5h36q-50 82 -141.5 129.5t-194.5 47.5q-79 0 -149 -28.5t-123 -80
t-82.5 -122.5t-29.5 -152t29.5 -152t82.5 -122.5t123 -80t149 -28.5q76 0 144.5 25.5t122 70.5t86.5 104.5t41 125.5h-477z" />
    <glyph glyph-name="H" unicode="H" horiz-adv-x="628" 
d="M107 740h-30v-740h30v359h414v-359h30v740h-30v-354h-414v354z" />
    <glyph glyph-name="I" unicode="I" horiz-adv-x="185" 
d="M107 740h-30v-740h30v740z" />
    <glyph glyph-name="J" unicode="J" horiz-adv-x="453" 
d="M377 740h-30v-528q0 -36 -3.5 -62t-12.5 -49q-13 -34 -49 -60t-90 -27q-16 0 -37 4.5t-44 17.5t-42.5 39t-29.5 66h-33q13 -73 65.5 -113.5t118.5 -40.5q31 0 61.5 9.5t56.5 28.5q31 24 51 65q11 28 14.5 57t3.5 65v528z" />
    <glyph glyph-name="K" unicode="K" horiz-adv-x="536" 
d="M121 740h-30v-740h30v193l120 158l259 -351h36l-276 375l276 365h-36l-377 -500h-2v500z" />
    <glyph glyph-name="L" unicode="L" horiz-adv-x="423" 
d="M107 740h-30v-740h343v27h-313v713z" />
    <glyph glyph-name="M" unicode="M" horiz-adv-x="933" 
d="M125 740h-48v-740h30v710h2l349 -710h17l348 710h2h-1h1v-710h30v740h-47l-341 -692z" />
    <glyph glyph-name="N" unicode="N" horiz-adv-x="738" 
d="M122 740h-45v-740h30v710h2l514 -710h38v740h-30v-700h-2z" />
    <glyph glyph-name="O" unicode="O" horiz-adv-x="851" 
d="M41 370q0 -81 29.5 -152t82.5 -122.5t123 -80t149 -28.5t149 28.5t123 80.5t82.5 122.5t29.5 151.5t-29.5 152t-82.5 122.5t-123 80t-149 28.5t-149 -28.5t-123 -80t-82.5 -122.5t-29.5 -152zM71 370q0 75 27.5 140.5t76 114t113 75t137.5 26.5t137.5 -26.5t113 -75
t76 -114t27.5 -140.5t-27.5 -140.5t-76 -114t-113 -75t-137.5 -26.5t-137.5 26.5t-113 75t-76 114t-27.5 140.5z" />
    <glyph glyph-name="P" unicode="P" horiz-adv-x="511" 
d="M67 740v-740h30v320h142q68 0 109 9t76 35q33 24 54 70t21 96t-21 96t-54 70q-35 26 -75.5 35t-109.5 9h-172zM97 713h143q63 0 100 -9t68 -32q27 -19 44 -59t17 -84q0 -42 -17 -82t-44 -59q-31 -23 -68 -32t-100 -9h-143v366z" />
    <glyph glyph-name="Q" unicode="Q" horiz-adv-x="882" 
d="M885 18q-64 9 -104.5 22.5t-84.5 39.5q23 23 42.5 45.5t39.5 58t33 82.5t13 104q0 81 -29.5 152t-82.5 122.5t-123 80t-149 28.5t-149 -28.5t-123 -80t-82.5 -122.5t-29.5 -152q0 -76 27.5 -145.5t78.5 -123t123 -84t158 -30.5q73 0 131 23t97 51l6 -3q52 -31 83 -43
q24 -9 54 -16t71 -12v31zM107 246q-9 24 -15 53.5t-6 70.5q0 75 27.5 140.5t76 114t113 75t137.5 26.5t137.5 -26.5t113 -75t76 -114t27.5 -140.5q0 -80 -31 -150t-91 -122q-60 46 -84 64t-39.5 29t-25.5 17.5t-24 13.5q-49 26 -104.5 40t-115.5 14q-52 0 -90.5 -8
t-81.5 -22zM119 217l2 1q41 15 74 23t80 8q69 0 130.5 -19t120.5 -58q1 -1 19 -14.5t44.5 -33.5t40 -30t18.5 -14q-34 -26 -88 -46t-116 -20q-34 0 -74.5 7t-86.5 28t-89.5 62.5t-74.5 105.5z" />
    <glyph glyph-name="R" unicode="R" horiz-adv-x="554" 
d="M67 740v-740h30v713h139q77 0 116 -5t70 -25q41 -27 64.5 -74.5t23.5 -97.5q0 -46 -14.5 -84.5t-48.5 -73.5q-34 -29 -70 -38t-94 -9h-46l217 -306h38l-199 279l29 1q56 0 98 21.5t68.5 55.5t39 74.5t12.5 80.5q0 64 -30.5 119t-76.5 78q-28 17 -71 24t-126 7h-169z" />
    <glyph glyph-name="S" unicode="S" horiz-adv-x="518" 
d="M45 187q4 -50 24.5 -88.5t51.5 -63t67 -36.5t71 -12q41 0 80 15t69.5 43t48 66.5t17.5 82.5q0 53 -19.5 89.5t-47.5 58t-54 31t-55 17.5l-8 2q-47 12 -80 23.5t-60 30t-43 47.5t-16 71q0 72 48.5 116.5t120.5 44.5q42 0 72 -13.5t48.5 -35t28 -46t14.5 -50.5h30
q-11 85 -65.5 128.5t-125.5 43.5q-84 0 -142.5 -51.5t-58.5 -141.5q0 -48 19.5 -82t49 -54t58.5 -30t66 -20h1l5 -1q37 -10 66 -20.5t56 -30t44.5 -52t17.5 -79.5q0 -38 -15.5 -71t-42 -56.5t-60 -36t-68.5 -12.5q-25 0 -53 8t-55.5 27t-48 53.5t-26.5 84.5h-30z" />
    <glyph glyph-name="T" unicode="T" horiz-adv-x="443" 
d="M5 740v-27h201v-713h30v713h201v27h-432z" />
    <glyph glyph-name="U" unicode="U" horiz-adv-x="605" 
d="M76 260q0 -36 3 -66t12 -59.5t27 -55.5t47 -47t64.5 -33t72.5 -12q38 0 73.5 12t64.5 33q29 20 47 46.5t27 56t12 59.5t3 66v480h-30v-480q0 -65 -7.5 -101t-38.5 -77q-24 -31 -65 -49.5t-84 -18.5q-45 0 -86.5 18.5t-65.5 49.5q-31 41 -38.5 77t-7.5 101v480h-30v-480z
" />
    <glyph glyph-name="V" unicode="V" horiz-adv-x="666" 
d="M41 740h-34l315 -740h21l316 740h-33l-293 -690z" />
    <glyph glyph-name="W" unicode="W" horiz-adv-x="888" 
d="M44 740h-32l211 -740h40l179 661h2l181 -661h39l212 740h-31l-198 -699h-2l-191 699h-21l-189 -699h-2z" />
    <glyph glyph-name="X" unicode="X" 
d="M53 740h-36l243 -364l-252 -376h33l235 350l236 -350h35l-254 376l243 364h-35l-225 -336z" />
    <glyph glyph-name="Y" unicode="Y" horiz-adv-x="554" 
d="M48 740h-33l247 -485v-255h30v255l247 485h-34l-228 -451z" />
    <glyph glyph-name="Z" unicode="Z" horiz-adv-x="499" 
d="M493 0v27h-424l403 713h-466v-27h417l-403 -713h473z" />
    <glyph glyph-name="bracketleft" unicode="[" horiz-adv-x="425" 
d="M344 753q-58 -28 -93 -64t-50.5 -72t-19 -64t-3.5 -58v-510q0 -89 40 -152.5t126 -104.5v36q-45 22 -72.5 51.5t-41 60t-17 56.5t-3.5 53v510q0 75 32 131t102 91v36z" />
    <glyph glyph-name="backslash" unicode="\" horiz-adv-x="518" 
d="M418 -100h33l-351 840h-33z" />
    <glyph glyph-name="bracketright" unicode="]" horiz-adv-x="425" 
d="M81 -272q58 27 93 63t50.5 72.5t19 64.5t3.5 57v510q0 89 -40 152.5t-126 105.5v-36q45 -22 73 -51.5t41 -60t16.5 -57t3.5 -53.5v-510q0 -75 -32 -130.5t-102 -90.5v-36z" />
    <glyph glyph-name="asciicircum" unicode="^" horiz-adv-x="600" 
d="M456 375h32l-172 365h-32l-172 -365h32l156 332z" />
    <glyph glyph-name="underscore" unicode="_" horiz-adv-x="500" 
d="M500 -125v50h-500v-50h500z" />
    <glyph glyph-name="grave" unicode="`" 
d="M158 766l-14 -23l238 -138l13 23z" />
    <glyph glyph-name="a" unicode="a" horiz-adv-x="674" 
d="M596 530h-28v-135h-2q-10 27 -32 53t-54 47.5t-73 34.5t-87 13q-62 0 -114 -22.5t-89 -61t-56.5 -89t-19.5 -105.5q0 -54 19 -104t55.5 -89.5t89 -62t115.5 -22.5q83 0 147 38.5t99 106.5h2v-132h28v530zM323 13q-62 0 -110 21.5t-79.5 58t-47.5 81t-17 91.5
q0 55 19.5 101.5t54 80t80.5 52t97 18.5q53 0 99 -19t80 -53t53 -80t19 -100q0 -51 -18 -97t-51.5 -81t-79 -54.5t-99.5 -19.5z" />
    <glyph glyph-name="b" unicode="b" horiz-adv-x="674" 
d="M78 0h28v132h2q35 -68 99 -106.5t147 -38.5q63 0 115.5 22.5t89 62t55.5 89.5t19 104q0 55 -19.5 105.5t-56.5 89t-89 61t-114 22.5q-90 -1 -152.5 -43t-93.5 -105h-2v345h-28v-740zM351 13q-53 0 -99 19.5t-79.5 54.5t-51.5 81t-18 97q0 54 19 100t53.5 80.5t80.5 53
t98 18.5q51 0 97 -18t80.5 -52t54 -80.5t19.5 -101.5q0 -46 -16 -91t-48 -81.5t-80 -58t-110 -21.5z" />
    <glyph glyph-name="c" unicode="c" horiz-adv-x="619" 
d="M552 167q-21 -63 -84 -108t-148 -46q-50 0 -95.5 18t-80.5 52t-55 80.5t-20 101.5q0 53 20 102t53 79q42 37 83 53.5t96 17.5q33 0 67.5 -9t66.5 -28t57.5 -49.5t40.5 -72.5h31q-30 89 -103.5 137t-160.5 48q-59 0 -110.5 -21t-89 -59t-58.5 -89.5t-21 -109.5v1
q0 -61 21.5 -112.5t60 -88.5t89.5 -57t108 -20q94 1 164.5 49.5t98.5 130.5h-31z" />
    <glyph glyph-name="d" unicode="d" horiz-adv-x="677" 
d="M596 740h-28v-345h-2q-10 27 -32 53t-54 47.5t-73 34.5t-87 13q-62 0 -114 -22.5t-89 -61t-56.5 -89t-19.5 -105.5q0 -54 19 -104t55.5 -89.5t89 -62t115.5 -22.5q83 0 147 38.5t99 106.5h2v-132h28v740zM323 13q-62 0 -110 21.5t-79.5 58t-47.5 81t-17 91.5
q0 55 19.5 101.5t54 80t80.5 52t97 18.5q53 0 99 -19t80 -53t53 -80t19 -100q0 -51 -18 -97t-51.5 -81t-79 -54.5t-99.5 -19.5z" />
    <glyph glyph-name="e" unicode="e" horiz-adv-x="619" 
d="M588 262l1 15q-2 60 -25.5 109.5t-62 84.5t-88 53.5t-102.5 18.5q-58 0 -109.5 -21t-89.5 -59t-59.5 -89.5t-21.5 -109.5v1q0 -58 20.5 -109t58.5 -89t89 -59t111 -21q85 0 154 42.5t104 123.5h-31q-31 -67 -91 -103.5t-135 -36.5q-42 0 -85.5 15t-81 46.5t-60.5 79
t-24 108.5h528zM61 288q3 49 23.5 91.5t55 73.5t78.5 47.5t93 16.5q48 0 92 -18t79 -49.5t55.5 -73.5t22.5 -88h-499z" />
    <glyph glyph-name="f" unicode="f" horiz-adv-x="263" 
d="M94 0h28v504h138v26h-138v55q0 45 14.5 73.5t36 42.5t41.5 18.5t43 6.5h3v27q-58 -3 -93 -23t-50.5 -48t-19 -52t-3.5 -48v-52h-87v-26h87v-504z" />
    <glyph glyph-name="g" unicode="g" horiz-adv-x="675" 
d="M68 -63q34 -76 106.5 -119.5t154.5 -43.5q36 0 81 14.5t88 47.5t71.5 89t28.5 134v471h-28v-135h-2q-10 27 -32 53t-54 47.5t-73 34.5t-87 13q-63 0 -115.5 -22.5t-90 -61.5t-57 -89t-19.5 -105q0 -54 19.5 -104t56 -89.5t89.5 -62t117 -22.5q83 0 147 38.5t98 106.5h3
v-78q0 -56 -20 -103t-55 -81t-79 -52t-91 -18q-39 0 -80 13.5t-76 41.5q-23 17 -37.5 35.5t-28.5 41.5l-3 5h-32zM573 265q0 -51 -18 -97t-51.5 -81t-79 -54.5t-99.5 -19.5q-62 0 -110.5 21.5t-81 58t-48.5 81t-17 91.5q0 55 19.5 101.5t54.5 80t81 52t99 18.5t99 -19
t80 -53t53 -80t19 -100z" />
    <glyph glyph-name="h" unicode="h" horiz-adv-x="640" 
d="M106 740h-28v-740h28v305q0 99 57.5 155t157.5 57q44 0 82.5 -12t67.5 -38q31 -28 48 -74t17 -113v-280h28v280q0 145 -77 210q-64 53 -166 53q-70 0 -130 -30.5t-83 -84.5h-2v312z" />
    <glyph glyph-name="i" unicode="i" horiz-adv-x="184" 
d="M106 530h-28v-530h28v530zM106 740h-28v-91h28v91z" />
    <glyph glyph-name="j" unicode="j" horiz-adv-x="219" 
d="M123 530h-28v-524q0 -90 -20.5 -134.5t-88.5 -54.5v-30q48 6 77 28t41.5 53.5t15.5 62.5t3 75v524zM123 740h-28v-92h28v92z" />
    <glyph glyph-name="k" unicode="k" horiz-adv-x="467" 
d="M106 740h-28v-740h28v97l114 152l194 -249h37l-213 271l196 259h-37l-289 -385h-2v595z" />
    <glyph glyph-name="l" unicode="l" horiz-adv-x="183" 
d="M106 740h-28v-740h28v740z" />
    <glyph glyph-name="m" unicode="m" horiz-adv-x="949" 
d="M106 530h-28v-530h28v302q0 55 13 92.5t36 64.5q20 26 54.5 42t74.5 16q94 -3 140 -63q20 -27 29 -60.5t9 -96.5v-297h28v297q0 63 8 95t33 64q23 30 60.5 45.5t76.5 15.5q81 0 124 -45q29 -29 41.5 -73t12.5 -102v-297h28v297q0 64 -14.5 113t-46.5 80q-53 53 -145 53
q-45 0 -85.5 -17t-68.5 -48q-15 -16 -23.5 -31.5t-13.5 -30.5h-2q-10 36 -35 62q-27 32 -67 48.5t-89 16.5q-17 0 -38.5 -3.5t-47 -14.5t-49.5 -33t-41 -56h-2v94z" />
    <glyph glyph-name="n" unicode="n" horiz-adv-x="641" 
d="M106 530h-28v-530h28v305q0 99 57.5 155t157.5 57q44 0 82.5 -12t67.5 -38q31 -28 48 -74t17 -113v-280h28v280q0 145 -77 210q-64 53 -166 53q-70 0 -130 -30.5t-83 -84.5h-2v102z" />
    <glyph glyph-name="o" unicode="o" horiz-adv-x="641" 
d="M41 265q0 -59 21 -110t59 -88.5t89 -58.5t110 -21t110 21t89 59t59 88.5t21 109.5q0 58 -21 109t-59 89t-89 59t-110 21t-110 -21t-89 -59t-59 -89t-21 -109zM69 265q0 53 19 99.5t53 80.5t80 53t99 19t99 -19t80 -53t53 -80.5t19 -99.5t-19 -99.5t-53 -80.5t-80 -53
t-99 -19t-99 19t-80 53t-53 80.5t-19 99.5z" />
    <glyph glyph-name="p" unicode="p" horiz-adv-x="677" 
d="M78 -213h28v348h2q10 -27 32 -53t54 -47.5t73 -34.5t87 -13q62 0 114 22.5t89 61.5t56.5 89t19.5 105q0 54 -19 104t-55.5 89.5t-89 62t-115.5 22.5q-83 0 -147 -38.5t-99 -106.5h-2v132h-28v-743zM351 517q62 0 110 -21.5t80 -58t48 -81t16 -91.5q0 -55 -19.5 -101.5
t-54 -80t-80.5 -52t-97 -18.5q-52 0 -98.5 19t-80.5 53t-53 80.5t-19 99.5q0 51 18 97t51.5 81t79.5 54.5t99 19.5z" />
    <glyph glyph-name="q" unicode="q" horiz-adv-x="674" 
d="M596 530h-28v-132h-2q-35 68 -99 106.5t-147 38.5q-63 0 -115.5 -22.5t-89 -62t-55.5 -89.5t-19 -104q0 -55 19.5 -105t56.5 -89t89 -61.5t114 -22.5q46 0 87 13t73 34.5t54 47.5t32 53h2v-348h28v743zM323 517q54 0 99.5 -19.5t79 -54.5t51.5 -81t18 -97
q0 -53 -19 -99.5t-53 -81t-80 -53t-99 -18.5q-51 0 -97 18.5t-80.5 52t-54 80t-19.5 101.5q0 46 16.5 91t48 81.5t79.5 58t110 21.5z" />
    <glyph glyph-name="r" unicode="r" horiz-adv-x="302" 
d="M106 530h-28v-530h28v287q0 64 14 108.5t57 83.5q32 23 58 29.5t58 7.5v27q-24 -1 -46.5 -4.5t-48 -14.5t-49.5 -33t-41 -57h-2v96z" />
    <glyph glyph-name="s" unicode="s" horiz-adv-x="426" 
d="M48 147q0 -73 48 -116.5t115 -43.5q66 0 110.5 45t44.5 114q-2 39 -15.5 65.5t-34 42.5t-43 24t-58.5 18l-4 1q-60 17 -87 40t-29 69q0 49 32 80t84 31q48 0 80 -28t32 -84h28q0 66 -39.5 101.5t-100.5 36.5q-62 0 -103 -36.5t-41 -100.5q1 -33 12 -55.5t29.5 -37.5
t41.5 -24t60 -20q66 -14 96.5 -43.5t31.5 -83.5q0 -55 -35 -92t-92 -37q-59 0 -97 36t-38 98h-28z" />
    <glyph glyph-name="t" unicode="t" horiz-adv-x="296" 
d="M124 530h-117v-26h117v-504h28v504h136v26h-136v210h-28v-210z" />
    <glyph glyph-name="u" unicode="u" horiz-adv-x="641" 
d="M536 0h28v530h-28v-301q0 -102 -57 -158.5t-158 -57.5q-44 0 -82.5 12t-67.5 38q-31 28 -48 74t-17 113v280h-28v-280q0 -145 77 -210q64 -53 166 -53q73 0 131.5 31t81.5 89h2v-107z" />
    <glyph glyph-name="v" unicode="v" horiz-adv-x="481" 
d="M222 0h36l218 530h-32l-204 -497l-207 497h-29z" />
    <glyph glyph-name="w" unicode="w" horiz-adv-x="758" 
d="M41 530h-31l195 -530h32l140 402h2l142 -402h32l196 530h-32l-178 -488h-2l-147 416h-21l-147 -416h-2z" />
    <glyph glyph-name="x" unicode="x" horiz-adv-x="407" 
d="M46 530h-36l177 -264l-177 -266h36l158 239l159 -239h34l-176 266l176 264h-34l-159 -237z" />
    <glyph glyph-name="y" unicode="y" horiz-adv-x="481" 
d="M42 530h-31l210 -529l-94 -214h32l321 743h-33l-209 -491z" />
    <glyph glyph-name="z" unicode="z" horiz-adv-x="407" 
d="M30 530v-26h311l-329 -480v-24h382v26h-346l329 477v27h-347z" />
    <glyph glyph-name="braceleft" unicode="{" horiz-adv-x="425" 
d="M344 -272v26h-54q-39 0 -50.5 21t-11.5 96v183q0 65 -22 116t-59 67q40 22 62 82q10 26 14.5 54t4.5 54v185q0 71 11.5 93t50.5 22h54v26h-66q-46 0 -64 -28.5t-18 -94.5v-187q0 -78 -22.5 -130.5t-58.5 -61.5v-28q47 -23 64 -67.5t17 -118.5v-183q0 -67 18 -96.5
t64 -29.5h66z" />
    <glyph glyph-name="bar" unicode="|" 
d="M263 740v-840h30v840h-30z" />
    <glyph glyph-name="braceright" unicode="}" horiz-adv-x="425" 
d="M81 -272h66q46 0 64 29.5t18 96.5v183q0 74 17 118.5t64 67.5v28q-36 9 -58.5 61.5t-22.5 130.5v187q0 66 -18 94.5t-64 28.5h-66v-26h54q39 0 50.5 -22t11.5 -93v-185q0 -26 5 -54t14 -54q22 -60 62 -82q-37 -16 -59 -67t-22 -116v-183q0 -75 -11.5 -96t-50.5 -21h-54
v-26z" />
    <glyph glyph-name="asciitilde" unicode="~" horiz-adv-x="600" 
d="M95 211q21 35 45.5 48.5t57.5 13.5q21 0 45.5 -9t62.5 -26l4 -2l6 -3q37 -17 60.5 -25t47.5 -8q28 0 54.5 19t44.5 52l-19 19q-19 -29 -37.5 -45.5t-44.5 -16.5q-19 0 -40 7.5t-56 24.5l-10 4l-11 5q-35 16 -59 24t-48 8q-84 0 -122 -72z" />
    <glyph glyph-name="exclamdown" unicode="&#xa1;" horiz-adv-x="259" 
d="M115 -209h30v574h-30v-574zM115 450h30v81h-30v-81z" />
    <glyph glyph-name="cent" unicode="&#xa2;" 
d="M487 469q-17 34 -38.5 57t-45.5 36t-46.5 19.5t-49.5 9.5v96h-30v-95q-54 -5 -94 -26.5t-65.5 -54t-37.5 -69.5t-12 -73t13 -74t39 -70.5t66 -53.5t91 -24v-108h30v108q17 1 39 6t48 17.5t51 36t43 58.5h-34q-17 -33 -58.5 -61t-105.5 -28q-90 0 -141 58.5t-51 137.5
q0 38 13.5 72.5t38.5 61.5t61 42t80 15q19 0 39.5 -3.5t43 -13t43.5 -29t37 -48.5h33z" />
    <glyph glyph-name="sterling" unicode="&#xa3;" 
d="M404 393h-273q-27 30 -38 61t-12 61q3 94 60 151.5t148 58.5q71 0 126 -43.5t75 -112.5h31q-22 86 -87 134.5t-145 48.5q-51 0 -95 -18t-76 -50.5t-49.5 -76t-17.5 -92.5q1 -38 13 -69.5t28 -52.5h-86v-27h112q59 -47 87.5 -92t28.5 -103q0 -48 -13.5 -79.5t-31.5 -56.5
q-3 -5 -5 -8h-148v-27h270q38 0 63.5 2.5t45 8.5t35.5 15.5t35 26.5q23 23 41.5 61t18.5 86q0 14 -1 23.5t-4 19.5l-1 6h-31q0 -1 1 -3q6 -25 6 -47q0 -32 -12.5 -64.5t-40.5 -62.5q-26 -24 -57 -34.5t-94 -10.5h-92q29 45 37 81t8 64q0 35 -10.5 66t-26 55t-33 41.5
t-34.5 29.5v2h244v27z" />
    <glyph glyph-name="currency" unicode="&#xa4;" 
d="M492 105l21 21l-77 77q56 61 56 140t-53 138l76 77l-22 21l-76 -76q-61 53 -140 53q-78 0 -140 -54l-77 77l-21 -21l77 -77q-54 -59 -54 -138q0 -78 56 -140l-77 -77l20 -21l77 76q29 -24 65 -37.5t74 -13.5q75 0 139 51zM92 343q0 38 15 71.5t41 58.5t59.5 39t69.5 14
q37 0 70.5 -14t59.5 -39t40.5 -58.5t14.5 -71.5q0 -37 -14.5 -70.5t-40.5 -58.5t-59.5 -39.5t-70.5 -14.5q-36 0 -69.5 14.5t-59.5 39.5t-41 58.5t-15 70.5z" />
    <glyph glyph-name="yen" unicode="&#xa5;" 
d="M509 409h-189l204 331h-32l-216 -350l-212 350h-32l200 -331h-185v-26h200l14 -26v-82h-214v-26h214v-249h30v249h218v26h-218v82l13 26h205v26z" />
    <glyph glyph-name="brokenbar" unicode="&#xa6;" 
d="M263 740v-336h30v336h-30zM263 236v-336h30v336h-30z" />
    <glyph glyph-name="section" unicode="&#xa7;" horiz-adv-x="573" 
d="M476 586q0 79 -49.5 123t-132.5 44q-77 0 -128 -46t-51 -123q0 -38 13.5 -63.5t32.5 -43.5q-50 -25 -75.5 -67t-25.5 -86q0 -35 10 -62t25 -44t30 -27t31 -18l5 -3l195 -90q57 -26 79.5 -55t24.5 -72q-2 -68 -48.5 -107t-123.5 -39q-37 0 -69.5 9.5t-58 29t-40.5 50.5
t-15 74v31h-28v-32q0 -66 28 -106.5t66 -58.5t68 -22.5t50 -4.5q87 0 143 50t56 126q0 33 -14.5 65.5t-55.5 61.5q44 25 69.5 66.5t25.5 88.5q0 34 -13.5 61.5t-33.5 45.5t-37.5 28.5t-34.5 18.5l-150 71q-23 11 -38 19.5t-29.5 23t-23.5 35.5t-10 49q1 61 42.5 98.5
t108.5 37.5q31 0 57 -6t46.5 -21t33.5 -42t17 -68h28zM380 363l4 -2q22 -11 37.5 -20.5t30 -23.5t24 -35t9.5 -49q0 -24 -9.5 -46.5t-24 -40.5t-31 -30.5t-30.5 -18.5l-225 104q-36 18 -56 48.5t-21 71.5q1 47 26 81.5t68 55.5z" />
    <glyph glyph-name="dieresis" unicode="&#xa8;" 
d="M232 734h-29v-116h29v116zM352 734h-29v-116h29v116z" />
    <glyph glyph-name="copyright" unicode="&#xa9;" horiz-adv-x="800" 
d="M600 451q-8 66 -63 108t-130 42q-97 0 -157 -64.5t-60 -167.5q0 -57 18 -101t49 -72t69 -42t78 -14q80 0 139.5 50.5t65.5 137.5h-28q-6 -52 -28 -85.5t-50.5 -50t-53.5 -21.5t-44 -5q-33 0 -66 11.5t-60.5 36t-44 63.5t-16.5 93q0 95 53.5 150t134.5 55q58 0 106 -30.5
t60 -93.5h28zM400 751q-81 0 -151.5 -29.5t-122 -82.5t-80 -122.5t-28.5 -146.5q0 -81 29 -150.5t81.5 -121.5t122.5 -80.5t149 -28.5q78 0 147.5 28.5t122 80.5t82 122t29.5 150q0 78 -28.5 147.5t-80.5 122.5t-122 82t-150 29zM400 725q75 0 140 -27.5t113 -77t74 -114
t26 -136.5q0 -74 -27 -139t-75.5 -113.5t-113 -75.5t-137.5 -27t-138 27t-113.5 76t-75.5 113.5t-27 138.5q0 72 26 136.5t74 114t113 77t141 27.5z" />
    <glyph glyph-name="ordfeminine" unicode="&#xaa;" horiz-adv-x="439" 
d="M360 495v-83h28v333h-28v-85h-2q-11 27 -37 51q-21 20 -51.5 31t-62.5 11q-37 0 -70.5 -13.5t-58.5 -37.5t-38.5 -55.5t-13.5 -67.5q0 -34 13 -65.5t37 -56.5t57.5 -39t73.5 -14q21 0 44.5 4.5t47.5 19.5q25 16 39 33.5t20 33.5h2zM54 575q0 69 46 110.5t107 41.5
q31 0 58.5 -11t49 -31.5t33.5 -48t12 -58.5q0 -60 -43 -104t-109 -44q-35 0 -64 13t-49 34.5t-30.5 47t-10.5 50.5z" />
    <glyph glyph-name="guillemotleft" unicode="&#xab;" horiz-adv-x="351" 
d="M49 276l111 -192l20 26l-96 166l96 167l-20 26zM160 276l112 -192l19 26l-96 166l96 167l-19 26z" />
    <glyph glyph-name="logicalnot" unicode="&#xac;" horiz-adv-x="600" 
d="M50 361v-28h472v-194h28v222h-500z" />
    <glyph glyph-name="minus" unicode="&#xad;" horiz-adv-x="600" 
d="M50 264v-28h500v28h-500z" />
    <glyph glyph-name="minus" unicode="&#x2212;" horiz-adv-x="600" 
d="M50 264v-28h500v28h-500z" />
    <glyph glyph-name="registered" unicode="&#xae;" horiz-adv-x="800" 
d="M235 589v-443h28v201h142q45 0 71.5 -7t39 -19.5t16.5 -29.5t6 -45q1 -8 1 -15q3 -51 4.5 -64t6.5 -21h29q-6 11 -8 24.5t-6 71.5q0 9 -1 18q-3 41 -18.5 65.5t-58.5 34.5v2q38 10 62 38t24 70q0 41 -18.5 66t-44.5 36.5t-48.5 14t-41.5 2.5h-185zM415 563q21 0 40 -2
t40 -10.5t35.5 -28t14.5 -52.5q0 -30 -13 -49t-33.5 -28.5t-39.5 -13t-43 -5.5q-8 0 -13 -1h-140v190h152zM400 751q-81 0 -151.5 -29.5t-122 -82.5t-80 -122.5t-28.5 -146.5q0 -81 29 -150.5t81.5 -121.5t122.5 -80.5t149 -28.5q78 0 147.5 28.5t122 80.5t82 122t29.5 150
q0 78 -28.5 147.5t-80.5 122.5t-122 82t-150 29zM400 725q75 0 140 -27.5t113 -77t74 -114t26 -136.5q0 -74 -27 -139t-75.5 -113.5t-113 -75.5t-137.5 -27t-138 27t-113.5 76t-75.5 113.5t-27 138.5q0 72 26 136.5t74 114t113 77t141 27.5z" />
    <glyph glyph-name="macron" unicode="&#xaf;" 
d="M455 690h-356v-30h356v30z" />
    <glyph glyph-name="degree" unicode="&#xb0;" horiz-adv-x="400" 
d="M343 566q0 60 -41.5 101.5t-101.5 41.5t-101.5 -41.5t-41.5 -101.5t41.5 -101.5t101.5 -41.5t101.5 41.5t41.5 101.5zM85 566q0 48 33 81.5t82 33.5t82 -33.5t33 -81.5t-33 -81.5t-82 -33.5t-82 33.5t-33 81.5z" />
    <glyph glyph-name="plusminus" unicode="&#xb1;" horiz-adv-x="600" 
d="M286 309h-238v-28h238v-197h28v197h238v28h-238v197h-28v-197zM48 0h504v28h-504v-28z" />
    <glyph glyph-name="twosuperior" unicode="&#xb2;" horiz-adv-x="351" 
d="M307 321h-232l165 173q32 35 48 63t16 59q0 61 -35 96.5t-93 35.5q-24 0 -47.5 -8.5t-43 -26.5t-31 -46t-11.5 -67h28q0 57 28 90t75 33q53 0 77.5 -31.5t24.5 -75.5q0 -24 -13 -48t-42 -56l-185 -193v-23h271v25z" />
    <glyph glyph-name="threesuperior" unicode="&#xb3;" horiz-adv-x="351" 
d="M33 430q1 -67 42.5 -104.5t96.5 -37.5q61 0 100 39t39 100q0 41 -23.5 75t-61.5 49q21 11 39 32.5t18 59.5q0 46 -32 75.5t-74 29.5q-41 0 -74 -26.5t-36 -79.5h28q2 36 24 58.5t58 22.5q36 -1 57 -24.5t21 -56.5q0 -8 -3 -21t-12 -26.5t-28 -23t-48 -9.5h-27v-25h27
q30 0 53.5 -10.5t37.5 -27.5t21 -36.5t7 -37.5q0 -49 -30 -80.5t-81 -31.5q-18 0 -37 6.5t-35.5 20t-27 36.5t-11.5 54h-28z" />
    <glyph glyph-name="acute" unicode="&#xb4;" 
d="M160 628l13 -23l238 138l-14 23z" />
    <glyph glyph-name="mu" unicode="&#xb5;" horiz-adv-x="561" 
d="M73 -181h28v258h2q9 -16 20.5 -30t31.5 -28t49.5 -23t68.5 -9q45 0 77.5 13.5t53.5 34.5t32 42t18 42h2v-119h28v530h-28v-252q0 -132 -49 -198.5t-134 -66.5q-36 0 -70.5 11.5t-62.5 44.5q-25 29 -32 67.5t-7 93.5v300h-28v-711z" />
    <glyph glyph-name="paragraph" unicode="&#xb6;" horiz-adv-x="561" 
d="M239 -126h30v836h129v-836h30v838h64v28h-246q-48 0 -85.5 -9.5t-58.5 -22.5q-39 -24 -64.5 -68.5t-25.5 -99.5q0 -82 56 -139.5t151 -57.5h20v-469z" />
    <glyph glyph-name="periodcentered" unicode="&#xb7;" horiz-adv-x="277" 
d="M154 296h-30v-81h30v81z" />
    <glyph glyph-name="periodcentered" unicode="&#x2219;" horiz-adv-x="277" 
d="M154 296h-30v-81h30v81z" />
    <glyph glyph-name="cedilla" unicode="&#xb8;" 
d="M290 0h-29l-46 -100l22 -5q15 25 41 25q18 0 31.5 -12.5t14.5 -32.5q-1 -23 -14.5 -36t-31.5 -13q-13 0 -27 6.5t-20 28.5h-27q4 -21 13.5 -33.5t21 -19t21.5 -8t18 -1.5q35 0 54 23t19 53q0 28 -19.5 49.5t-52.5 21.5q-7 0 -13 -3l-2 1z" />
    <glyph glyph-name="onesuperior" unicode="&#xb9;" horiz-adv-x="351" 
d="M197 740h-123v-25h95v-419h28v444z" />
    <glyph glyph-name="ordmasculine" unicode="&#xba;" horiz-adv-x="439" 
d="M44 575q0 -35 13.5 -66t38 -55t56.5 -37t66 -13q33 0 65 12.5t57.5 36t40 56t14.5 70.5q0 35 -13 66.5t-36.5 56t-56.5 38t-71 13.5q-36 0 -68 -13.5t-56 -38t-37 -57t-13 -69.5zM72 576q0 67 43.5 109t104.5 42q63 0 104.5 -43.5t42.5 -104.5q-1 -64 -45 -106.5
t-104 -42.5q-30 0 -56.5 11.5t-46.5 32t-31.5 47t-11.5 55.5z" />
    <glyph glyph-name="guillemotright" unicode="&#xbb;" horiz-adv-x="351" 
d="M191 469l-20 -26l96 -167l-96 -166l20 -26l111 192zM79 469l-19 -26l96 -167l-96 -166l19 -26l112 192z" />
    <glyph glyph-name="onequarter" unicode="&#xbc;" horiz-adv-x="700" 
d="M502 740h-30l-329 -740h29zM586 407l2 -2l-1 2v-297h-194zM167 740h-123v-25h95v-419h28v444zM615 444h-33l-223 -338v-21h228v-85h28v85h42v25h-42v334z" />
    <glyph glyph-name="onehalf" unicode="&#xbd;" horiz-adv-x="750" 
d="M167 740h-123v-25h95v-419h28v444zM502 740h-30l-329 -740h29zM707 25h-232l165 173q32 35 48 63t16 59q0 61 -35 96.5t-93 35.5q-24 0 -47.5 -8.5t-43 -26.5t-31 -46t-11.5 -67h28q0 57 28 90t75 33q53 0 77.5 -31.5t24.5 -75.5q0 -24 -13 -48t-42 -56l-185 -193v-23
h271v25z" />
    <glyph glyph-name="threequarters" unicode="&#xbe;" horiz-adv-x="807" 
d="M694 407l2 -2l-1 2v-297h-194zM610 740h-30l-329 -740h29zM723 444h-33l-223 -338v-21h228v-85h28v85h42v25h-42v334zM40 430q1 -67 42.5 -104.5t96.5 -37.5q61 0 100 39t39 100q0 41 -23.5 75t-61.5 49q21 11 39 32.5t18 59.5q0 46 -32 75.5t-74 29.5q-41 0 -74 -26.5
t-36 -79.5h28q2 36 24 58.5t58 22.5q36 -1 57 -24.5t21 -56.5q0 -8 -3 -21t-12 -26.5t-28 -23t-48 -9.5h-27v-25h27q30 0 53.5 -10.5t37.5 -27.5t21 -36.5t7 -37.5q0 -49 -30 -80.5t-81 -31.5q-18 0 -37 6.5t-35.5 20t-27 36.5t-11.5 54h-28z" />
    <glyph glyph-name="questiondown" unicode="&#xbf;" horiz-adv-x="536" 
d="M263 364q0 -51 -13 -93.5t-62 -90.5l-5 -5q-56 -53 -85 -94.5t-29 -92.5q0 -46 17 -84.5t47 -67t68.5 -43.5t79.5 -15q32 0 68 11t68.5 35.5t54 65t24.5 97.5h-30q-2 -47 -19.5 -81.5t-45 -55.5t-59 -31t-62.5 -10q-39 0 -72 14t-57.5 38.5t-38 56.5t-13.5 68
q2 44 21 73.5t60 70.5l22 22q31 30 49.5 57.5t27 53t11 47.5t3.5 54h-30zM264 449h29v81h-29v-81z" />
    <glyph glyph-name="Agrave" unicode="&#xc0;" horiz-adv-x="687" 
d="M224 951l-14 -23l238 -138l13 23zM150 258h387l111 -258h32l-317 740h-39l-317 -740h32zM343 712l181 -427h-361z" />
    <glyph glyph-name="Aacute" unicode="&#xc1;" horiz-adv-x="687" 
d="M226 813l13 -23l238 138l-14 23zM150 258h387l111 -258h32l-317 740h-39l-317 -740h32zM343 712l181 -427h-361z" />
    <glyph glyph-name="Acircumflex" unicode="&#xc2;" horiz-adv-x="687" 
d="M343 933l-195 -110l25 -15l170 94l170 -94l26 15zM150 258h387l111 -258h32l-317 740h-39l-317 -740h32zM343 712l181 -427h-361z" />
    <glyph glyph-name="Atilde" unicode="&#xc3;" horiz-adv-x="687" 
d="M504 881q-22 -13 -37 -18t-33 -5q-24 0 -41.5 5.5t-47.5 21.5q-31 15 -49 19.5t-36 4.5q-32 0 -55 -9.5t-43 -25.5l20 -20q14 11 34.5 19t43.5 8q19 0 35 -5.5t49 -22.5q25 -15 46.5 -20t44.5 -5t45.5 9t43.5 23zM150 258h387l111 -258h32l-317 740h-39l-317 -740h32z
M343 712l181 -427h-361z" />
    <glyph glyph-name="Adieresis" unicode="&#xc4;" horiz-adv-x="687" 
d="M298 919h-29v-116h29v116zM418 919h-29v-116h29v116zM150 258h387l111 -258h32l-317 740h-39l-317 -740h32zM343 712l181 -427h-361z" />
    <glyph glyph-name="Aring" unicode="&#xc5;" horiz-adv-x="687" 
d="M343 937q-37 0 -64 -26.5t-27 -64.5q0 -37 27 -64t64 -27q38 0 65 27t27 64q0 38 -27 64.5t-65 26.5zM343 911q27 0 45.5 -19t18.5 -45t-18.5 -44.5t-45.5 -18.5q-26 0 -44.5 18.5t-18.5 44.5t18.5 45t44.5 19zM150 258h387l111 -258h32l-317 740h-39l-317 -740h32z
M343 712l181 -427h-361z" />
    <glyph glyph-name="AE" unicode="&#xc6;" horiz-adv-x="944" 
d="M504 740l-512 -740h34l183 264h315v-264h346v27h-316v332h316v27h-316v327h316v27h-366zM522 722h2v-431h-293z" />
    <glyph glyph-name="Ccedilla" unicode="&#xc7;" horiz-adv-x="786" 
d="M714 161q-12 -17 -34 -40t-58 -48t-86.5 -42t-110.5 -17q-73 0 -137.5 26.5t-113 75t-76 114t-27.5 140.5t27.5 140.5t76 114t113 75t137.5 26.5q57 0 106 -17t85.5 -41.5t60 -48.5t37.5 -44h35q-22 34 -53 65t-72 56.5t-91.5 41t-107.5 15.5q-79 0 -149 -28.5t-123 -80
t-82.5 -122.5t-29.5 -152q0 -77 27 -145t75 -119t112 -81t137 -36l-41 -89l22 -5q15 25 41 25q18 0 31.5 -12.5t14.5 -32.5q-1 -23 -14.5 -36t-31.5 -13q-13 0 -27 6.5t-20 28.5h-27q4 -21 13.5 -33.5t21 -19t21.5 -8t18 -1.5q35 0 54 23t19 53q0 28 -19.5 49.5t-52.5 21.5
q-7 0 -13 -3l-2 1l20 43h5q56 0 107 14.5t92.5 39.5t73 56t50.5 64h-34z" />
    <glyph glyph-name="Egrave" unicode="&#xc8;" horiz-adv-x="547" 
d="M154 951l-14 -23l238 -138l13 23zM77 740v-740h406v27h-376v332h376v27h-376v327h376v27h-406z" />
    <glyph glyph-name="Eacute" unicode="&#xc9;" horiz-adv-x="547" 
d="M156 813l13 -23l238 138l-14 23zM77 740v-740h406v27h-376v332h376v27h-376v327h376v27h-406z" />
    <glyph glyph-name="Ecircumflex" unicode="&#xca;" horiz-adv-x="547" 
d="M273 933l-195 -110l25 -15l170 94l170 -94l26 15zM77 740v-740h406v27h-376v332h376v27h-376v327h376v27h-406z" />
    <glyph glyph-name="Edieresis" unicode="&#xcb;" horiz-adv-x="547" 
d="M228 919h-29v-116h29v116zM348 919h-29v-116h29v116zM77 740v-740h406v27h-376v332h376v27h-376v327h376v27h-406z" />
    <glyph glyph-name="Igrave" unicode="&#xcc;" horiz-adv-x="185" 
d="M-47 951l-14 -23l238 -138l13 23zM107 740h-30v-740h30v740z" />
    <glyph glyph-name="Iacute" unicode="&#xcd;" horiz-adv-x="185" 
d="M-5 813l13 -23l238 138l-14 23zM107 740h-30v-740h30v740z" />
    <glyph glyph-name="Icircumflex" unicode="&#xce;" horiz-adv-x="185" 
d="M92 933l-195 -110l25 -15l170 94l170 -94l26 15zM107 740h-30v-740h30v740z" />
    <glyph glyph-name="Idieresis" unicode="&#xcf;" horiz-adv-x="185" 
d="M47 919h-29v-116h29v116zM167 919h-29v-116h29v116zM107 740h-30v-740h30v740z" />
    <glyph glyph-name="Eth" unicode="&#xd0;" horiz-adv-x="701" 
d="M77 359v-359h209q175 0 274 98t99 272t-99 272t-274 98h-209v-354h-77v-27h77zM358 386h-251v327h179q163 0 253 -91.5t90 -253.5q0 -160 -91 -250.5t-252 -90.5h-179v332h251v27z" />
    <glyph glyph-name="Ntilde" unicode="&#xd1;" horiz-adv-x="738" 
d="M530 881q-22 -13 -37 -18t-33 -5q-24 0 -41.5 5.5t-47.5 21.5q-31 15 -49 19.5t-36 4.5q-32 0 -55 -9.5t-43 -25.5l20 -20q14 11 34.5 19t43.5 8q19 0 35 -5.5t49 -22.5q25 -15 46.5 -20t44.5 -5t45.5 9t43.5 23zM122 740h-45v-740h30v710h2l514 -710h38v740h-30v-700h-2
z" />
    <glyph glyph-name="Ograve" unicode="&#xd2;" horiz-adv-x="851" 
d="M306 951l-14 -23l238 -138l13 23zM41 370q0 -81 29.5 -152t82.5 -122.5t123 -80t149 -28.5t149 28.5t123 80.5t82.5 122.5t29.5 151.5t-29.5 152t-82.5 122.5t-123 80t-149 28.5t-149 -28.5t-123 -80t-82.5 -122.5t-29.5 -152zM71 370q0 75 27.5 140.5t76 114t113 75
t137.5 26.5t137.5 -26.5t113 -75t76 -114t27.5 -140.5t-27.5 -140.5t-76 -114t-113 -75t-137.5 -26.5t-137.5 26.5t-113 75t-76 114t-27.5 140.5z" />
    <glyph glyph-name="Oacute" unicode="&#xd3;" horiz-adv-x="851" 
d="M308 813l13 -23l238 138l-14 23zM41 370q0 -81 29.5 -152t82.5 -122.5t123 -80t149 -28.5t149 28.5t123 80.5t82.5 122.5t29.5 151.5t-29.5 152t-82.5 122.5t-123 80t-149 28.5t-149 -28.5t-123 -80t-82.5 -122.5t-29.5 -152zM71 370q0 75 27.5 140.5t76 114t113 75
t137.5 26.5t137.5 -26.5t113 -75t76 -114t27.5 -140.5t-27.5 -140.5t-76 -114t-113 -75t-137.5 -26.5t-137.5 26.5t-113 75t-76 114t-27.5 140.5z" />
    <glyph glyph-name="Ocircumflex" unicode="&#xd4;" horiz-adv-x="851" 
d="M425 933l-195 -110l25 -15l170 94l170 -94l26 15zM41 370q0 -81 29.5 -152t82.5 -122.5t123 -80t149 -28.5t149 28.5t123 80.5t82.5 122.5t29.5 151.5t-29.5 152t-82.5 122.5t-123 80t-149 28.5t-149 -28.5t-123 -80t-82.5 -122.5t-29.5 -152zM71 370q0 75 27.5 140.5
t76 114t113 75t137.5 26.5t137.5 -26.5t113 -75t76 -114t27.5 -140.5t-27.5 -140.5t-76 -114t-113 -75t-137.5 -26.5t-137.5 26.5t-113 75t-76 114t-27.5 140.5z" />
    <glyph glyph-name="Otilde" unicode="&#xd5;" horiz-adv-x="851" 
d="M586 881q-22 -13 -37 -18t-33 -5q-24 0 -41.5 5.5t-47.5 21.5q-31 15 -49 19.5t-36 4.5q-32 0 -55 -9.5t-43 -25.5l20 -20q14 11 34.5 19t43.5 8q19 0 35 -5.5t49 -22.5q25 -15 46.5 -20t44.5 -5t45.5 9t43.5 23zM41 370q0 -81 29.5 -152t82.5 -122.5t123 -80t149 -28.5
t149 28.5t123 80.5t82.5 122.5t29.5 151.5t-29.5 152t-82.5 122.5t-123 80t-149 28.5t-149 -28.5t-123 -80t-82.5 -122.5t-29.5 -152zM71 370q0 75 27.5 140.5t76 114t113 75t137.5 26.5t137.5 -26.5t113 -75t76 -114t27.5 -140.5t-27.5 -140.5t-76 -114t-113 -75
t-137.5 -26.5t-137.5 26.5t-113 75t-76 114t-27.5 140.5z" />
    <glyph glyph-name="Odieresis" unicode="&#xd6;" horiz-adv-x="851" 
d="M380 919h-29v-116h29v116zM500 919h-29v-116h29v116zM41 370q0 -81 29.5 -152t82.5 -122.5t123 -80t149 -28.5t149 28.5t123 80.5t82.5 122.5t29.5 151.5t-29.5 152t-82.5 122.5t-123 80t-149 28.5t-149 -28.5t-123 -80t-82.5 -122.5t-29.5 -152zM71 370q0 75 27.5 140.5
t76 114t113 75t137.5 26.5t137.5 -26.5t113 -75t76 -114t27.5 -140.5t-27.5 -140.5t-76 -114t-113 -75t-137.5 -26.5t-137.5 26.5t-113 75t-76 114t-27.5 140.5z" />
    <glyph glyph-name="multiply" unicode="&#xd7;" horiz-adv-x="600" 
d="M70 499l-20 -22l229 -226l-229 -228l20 -21l230 229l230 -229l20 21l-229 228l229 226l-20 22l-230 -228z" />
    <glyph glyph-name="Oslash" unicode="&#xd8;" horiz-adv-x="851" 
d="M207 87q-64 48 -100 122t-36 161q0 75 27.5 140.5t76 114t113 75t137.5 26.5q111 0 202 -61zM651 647q60 -48 94 -120.5t34 -156.5q0 -75 -27.5 -140.5t-76 -114t-113 -75t-137.5 -26.5q-107 0 -193 57zM644 688q-47 31 -102.5 48t-116.5 17q-79 0 -149 -28.5t-123 -80
t-82.5 -122.5t-29.5 -152q0 -94 40 -174t109 -132l-96 -132l23 -18l98 134q45 -29 98.5 -45t111.5 -16q79 0 149 28.5t123 80.5t82.5 122.5t29.5 151.5q0 92 -37 169.5t-104 130.5l88 121l-24 18z" />
    <glyph glyph-name="Ugrave" unicode="&#xd9;" horiz-adv-x="605" 
d="M183 951l-14 -23l238 -138l13 23zM76 260q0 -36 3 -66t12 -59.5t27 -55.5t47 -47t64.5 -33t72.5 -12q38 0 73.5 12t64.5 33q29 20 47 46.5t27 56t12 59.5t3 66v480h-30v-480q0 -65 -7.5 -101t-38.5 -77q-24 -31 -65 -49.5t-84 -18.5q-45 0 -86.5 18.5t-65.5 49.5
q-31 41 -38.5 77t-7.5 101v480h-30v-480z" />
    <glyph glyph-name="Uacute" unicode="&#xda;" horiz-adv-x="605" 
d="M185 813l13 -23l238 138l-14 23zM76 260q0 -36 3 -66t12 -59.5t27 -55.5t47 -47t64.5 -33t72.5 -12q38 0 73.5 12t64.5 33q29 20 47 46.5t27 56t12 59.5t3 66v480h-30v-480q0 -65 -7.5 -101t-38.5 -77q-24 -31 -65 -49.5t-84 -18.5q-45 0 -86.5 18.5t-65.5 49.5
q-31 41 -38.5 77t-7.5 101v480h-30v-480z" />
    <glyph glyph-name="Ucircumflex" unicode="&#xdb;" horiz-adv-x="605" 
d="M302 933l-195 -110l25 -15l170 94l170 -94l26 15zM76 260q0 -36 3 -66t12 -59.5t27 -55.5t47 -47t64.5 -33t72.5 -12q38 0 73.5 12t64.5 33q29 20 47 46.5t27 56t12 59.5t3 66v480h-30v-480q0 -65 -7.5 -101t-38.5 -77q-24 -31 -65 -49.5t-84 -18.5q-45 0 -86.5 18.5
t-65.5 49.5q-31 41 -38.5 77t-7.5 101v480h-30v-480z" />
    <glyph glyph-name="Udieresis" unicode="&#xdc;" horiz-adv-x="605" 
d="M257 919h-29v-116h29v116zM377 919h-29v-116h29v116zM76 260q0 -36 3 -66t12 -59.5t27 -55.5t47 -47t64.5 -33t72.5 -12q38 0 73.5 12t64.5 33q29 20 47 46.5t27 56t12 59.5t3 66v480h-30v-480q0 -65 -7.5 -101t-38.5 -77q-24 -31 -65 -49.5t-84 -18.5q-45 0 -86.5 18.5
t-65.5 49.5q-31 41 -38.5 77t-7.5 101v480h-30v-480z" />
    <glyph glyph-name="Yacute" unicode="&#xdd;" horiz-adv-x="554" 
d="M160 813l13 -23l238 138l-14 23zM48 740h-33l247 -485v-255h30v255l247 485h-34l-228 -451z" />
    <glyph glyph-name="Thorn" unicode="&#xde;" horiz-adv-x="511" 
d="M67 740v-740h30v164h142q73 0 111 9t74 35q33 24 54 70t21 96t-21 96t-54 70q-36 27 -74 35.5t-111 8.5h-142v156h-30zM97 557h143q65 0 100.5 -9t67.5 -32q26 -20 43.5 -60t17.5 -83q0 -42 -17.5 -81.5t-43.5 -59.5q-32 -23 -67.5 -32t-100.5 -9h-143v366z" />
    <glyph glyph-name="germandbls" unicode="&#xdf;" horiz-adv-x="559" 
d="M76 0h28v472q0 77 6.5 116.5t30.5 74.5q19 28 54 45.5t73 17.5q75 0 121 -45t46 -126q0 -37 -13 -68.5t-36.5 -55t-52 -36t-59.5 -12.5h-27v-26h28q62 -1 92.5 -10t58.5 -29q20 -17 33 -36.5t19.5 -38.5t8.5 -34.5t2 -28.5q0 -36 -13.5 -66.5t-36.5 -53.5t-53 -35
t-62 -12q-27 0 -56 9t-55 28.5t-43.5 54.5t-19.5 86h-28q3 -56 21.5 -95.5t47 -63.5t62 -34.5t68.5 -10.5q38 0 73.5 14.5t63 40.5t43.5 63t16 80q0 69 -42.5 124.5t-122.5 66.5v2q34 14 56.5 36.5t34 48.5t16 49.5t4.5 42.5q0 88 -53 142.5t-143 54.5q-45 0 -86.5 -21
t-65.5 -58q-23 -31 -31 -73t-8 -128v-472z" />
    <glyph glyph-name="agrave" unicode="&#xe0;" horiz-adv-x="674" 
d="M218 766l-14 -23l238 -138l13 23zM596 530h-28v-135h-2q-10 27 -32 53t-54 47.5t-73 34.5t-87 13q-62 0 -114 -22.5t-89 -61t-56.5 -89t-19.5 -105.5q0 -54 19 -104t55.5 -89.5t89 -62t115.5 -22.5q83 0 147 38.5t99 106.5h2v-132h28v530zM323 13q-62 0 -110 21.5
t-79.5 58t-47.5 81t-17 91.5q0 55 19.5 101.5t54 80t80.5 52t97 18.5q53 0 99 -19t80 -53t53 -80t19 -100q0 -51 -18 -97t-51.5 -81t-79 -54.5t-99.5 -19.5z" />
    <glyph glyph-name="aacute" unicode="&#xe1;" horiz-adv-x="674" 
d="M215 628l13 -23l238 138l-14 23zM596 530h-28v-135h-2q-10 27 -32 53t-54 47.5t-73 34.5t-87 13q-62 0 -114 -22.5t-89 -61t-56.5 -89t-19.5 -105.5q0 -54 19 -104t55.5 -89.5t89 -62t115.5 -22.5q83 0 147 38.5t99 106.5h2v-132h28v530zM323 13q-62 0 -110 21.5
t-79.5 58t-47.5 81t-17 91.5q0 55 19.5 101.5t54 80t80.5 52t97 18.5q53 0 99 -19t80 -53t53 -80t19 -100q0 -51 -18 -97t-51.5 -81t-79 -54.5t-99.5 -19.5z" />
    <glyph glyph-name="acircumflex" unicode="&#xe2;" horiz-adv-x="674" 
d="M337 748l-195 -110l25 -15l170 94l170 -94l26 15zM596 530h-28v-135h-2q-10 27 -32 53t-54 47.5t-73 34.5t-87 13q-62 0 -114 -22.5t-89 -61t-56.5 -89t-19.5 -105.5q0 -54 19 -104t55.5 -89.5t89 -62t115.5 -22.5q83 0 147 38.5t99 106.5h2v-132h28v530zM323 13
q-62 0 -110 21.5t-79.5 58t-47.5 81t-17 91.5q0 55 19.5 101.5t54 80t80.5 52t97 18.5q53 0 99 -19t80 -53t53 -80t19 -100q0 -51 -18 -97t-51.5 -81t-79 -54.5t-99.5 -19.5z" />
    <glyph glyph-name="atilde" unicode="&#xe3;" horiz-adv-x="674" 
d="M498 686q-22 -13 -37 -18t-33 -5q-24 0 -41.5 5.5t-47.5 21.5q-31 15 -49 19.5t-36 4.5q-32 0 -55 -9.5t-43 -25.5l20 -20q14 11 34.5 19t43.5 8q19 0 35 -5.5t49 -22.5q25 -15 46.5 -20t44.5 -5t45.5 9t43.5 23zM596 530h-28v-135h-2q-10 27 -32 53t-54 47.5t-73 34.5
t-87 13q-62 0 -114 -22.5t-89 -61t-56.5 -89t-19.5 -105.5q0 -54 19 -104t55.5 -89.5t89 -62t115.5 -22.5q83 0 147 38.5t99 106.5h2v-132h28v530zM323 13q-62 0 -110 21.5t-79.5 58t-47.5 81t-17 91.5q0 55 19.5 101.5t54 80t80.5 52t97 18.5q53 0 99 -19t80 -53t53 -80
t19 -100q0 -51 -18 -97t-51.5 -81t-79 -54.5t-99.5 -19.5z" />
    <glyph glyph-name="adieresis" unicode="&#xe4;" horiz-adv-x="674" 
d="M292 734h-29v-116h29v116zM412 734h-29v-116h29v116zM596 530h-28v-135h-2q-10 27 -32 53t-54 47.5t-73 34.5t-87 13q-62 0 -114 -22.5t-89 -61t-56.5 -89t-19.5 -105.5q0 -54 19 -104t55.5 -89.5t89 -62t115.5 -22.5q83 0 147 38.5t99 106.5h2v-132h28v530zM323 13
q-62 0 -110 21.5t-79.5 58t-47.5 81t-17 91.5q0 55 19.5 101.5t54 80t80.5 52t97 18.5q53 0 99 -19t80 -53t53 -80t19 -100q0 -51 -18 -97t-51.5 -81t-79 -54.5t-99.5 -19.5z" />
    <glyph glyph-name="aring" unicode="&#xe5;" horiz-adv-x="674" 
d="M337 775q-37 0 -64 -26.5t-27 -64.5q0 -37 27 -64t64 -27q38 0 65 27t27 64q0 38 -27 64.5t-65 26.5zM337 749q27 0 45.5 -19t18.5 -45t-18.5 -44.5t-45.5 -18.5q-26 0 -44.5 18.5t-18.5 44.5t18.5 45t44.5 19zM596 530h-28v-135h-2q-10 27 -32 53t-54 47.5t-73 34.5
t-87 13q-62 0 -114 -22.5t-89 -61t-56.5 -89t-19.5 -105.5q0 -54 19 -104t55.5 -89.5t89 -62t115.5 -22.5q83 0 147 38.5t99 106.5h2v-132h28v530zM323 13q-62 0 -110 21.5t-79.5 58t-47.5 81t-17 91.5q0 55 19.5 101.5t54 80t80.5 52t97 18.5q53 0 99 -19t80 -53t53 -80
t19 -100q0 -51 -18 -97t-51.5 -81t-79 -54.5t-99.5 -19.5z" />
    <glyph glyph-name="ae" unicode="&#xe6;" horiz-adv-x="1154" 
d="M595 530h-28v-155h-2l-4 12q-9 23 -16 34q-38 60 -98 91t-129 31q-58 0 -109 -21t-88.5 -59t-58.5 -89t-21 -110v1q0 -59 21 -110t59 -88.5t89 -58.5t110 -21q21 0 47.5 5t57.5 17.5t61 35t53 56.5q14 18 26 61h2v-162h28v162h2q11 -37 26 -60q38 -55 95.5 -85t127.5 -30
q45 0 85.5 14.5t72.5 38.5t55.5 53.5t37.5 59.5h-33q-33 -58 -89.5 -99t-131.5 -41q-32 0 -71 11.5t-77.5 39t-66 77t-33.5 121.5h518q-1 55 -20 105.5t-55.5 90.5t-88 62.5t-114.5 22.5q-27 0 -53.5 -4.5t-55 -17t-57 -37.5t-52.5 -62q-5 -10 -13 -30q-5 -11 -7 -16h-2v154
zM596 288q8 47 20 79.5t43 67.5q40 46 85 64t93 18q96 0 161.5 -59t83.5 -170h-486zM568 265q0 -51 -19.5 -96.5t-54 -80.5t-79.5 -55t-94 -20q-53 0 -99.5 19t-80.5 53t-53 80.5t-19 99.5t19 99.5t53 80.5t80.5 53t99.5 19q50 0 95 -20t79.5 -55.5t53.5 -81.5t19 -95z" />
    <glyph glyph-name="ccedilla" unicode="&#xe7;" horiz-adv-x="619" 
d="M552 167q-21 -63 -84 -108t-148 -46q-50 0 -95.5 18t-80.5 52t-55 80.5t-20 101.5q0 53 20 102t53 79q42 37 83 53.5t96 17.5q33 0 67.5 -9t66.5 -28t57.5 -49.5t40.5 -72.5h31q-30 89 -103.5 137t-160.5 48q-59 0 -110 -21t-89 -59t-59 -89t-21 -109q0 -57 19 -105.5
t53 -85t79.5 -58.5t97.5 -26l-41 -90l22 -5q15 25 41 25q18 0 31.5 -12.5t14.5 -32.5q-1 -23 -14.5 -36t-31.5 -13q-13 0 -27 6.5t-20 28.5h-27q4 -21 13.5 -33.5t21 -19t21.5 -8t18 -1.5q35 0 54 23t19 53q0 28 -19.5 49.5t-52.5 21.5q-7 0 -13 -3l-2 1l20 43h2
q94 1 164.5 49.5t98.5 130.5h-31z" />
    <glyph glyph-name="egrave" unicode="&#xe8;" horiz-adv-x="619" 
d="M190 766l-14 -23l238 -138l13 23zM588 262l1 15q-2 60 -25.5 109.5t-62 84.5t-88 53.5t-102.5 18.5q-58 0 -109.5 -21t-89.5 -59t-59.5 -89.5t-21.5 -109.5v1q0 -58 20.5 -109t58.5 -89t89 -59t111 -21q85 0 154 42.5t104 123.5h-31q-31 -67 -91 -103.5t-135 -36.5
q-42 0 -85.5 15t-81 46.5t-60.5 79t-24 108.5h528zM61 288q3 49 23.5 91.5t55 73.5t78.5 47.5t93 16.5q48 0 92 -18t79 -49.5t55.5 -73.5t22.5 -88h-499z" />
    <glyph glyph-name="eacute" unicode="&#xe9;" horiz-adv-x="619" 
d="M187 628l13 -23l238 138l-14 23zM588 262l1 15q-2 60 -25.5 109.5t-62 84.5t-88 53.5t-102.5 18.5q-58 0 -109.5 -21t-89.5 -59t-59.5 -89.5t-21.5 -109.5v1q0 -58 20.5 -109t58.5 -89t89 -59t111 -21q85 0 154 42.5t104 123.5h-31q-31 -67 -91 -103.5t-135 -36.5
q-42 0 -85.5 15t-81 46.5t-60.5 79t-24 108.5h528zM61 288q3 49 23.5 91.5t55 73.5t78.5 47.5t93 16.5q48 0 92 -18t79 -49.5t55.5 -73.5t22.5 -88h-499z" />
    <glyph glyph-name="ecircumflex" unicode="&#xea;" horiz-adv-x="619" 
d="M309 748l-195 -110l25 -15l170 94l170 -94l26 15zM588 262l1 15q-2 60 -25.5 109.5t-62 84.5t-88 53.5t-102.5 18.5q-58 0 -109.5 -21t-89.5 -59t-59.5 -89.5t-21.5 -109.5v1q0 -58 20.5 -109t58.5 -89t89 -59t111 -21q85 0 154 42.5t104 123.5h-31q-31 -67 -91 -103.5
t-135 -36.5q-42 0 -85.5 15t-81 46.5t-60.5 79t-24 108.5h528zM61 288q3 49 23.5 91.5t55 73.5t78.5 47.5t93 16.5q48 0 92 -18t79 -49.5t55.5 -73.5t22.5 -88h-499z" />
    <glyph glyph-name="edieresis" unicode="&#xeb;" horiz-adv-x="619" 
d="M259 734h-29v-116h29v116zM379 734h-29v-116h29v116zM588 262l1 15q-2 60 -25.5 109.5t-62 84.5t-88 53.5t-102.5 18.5q-58 0 -109.5 -21t-89.5 -59t-59.5 -89.5t-21.5 -109.5v1q0 -58 20.5 -109t58.5 -89t89 -59t111 -21q85 0 154 42.5t104 123.5h-31
q-31 -67 -91 -103.5t-135 -36.5q-42 0 -85.5 15t-81 46.5t-60.5 79t-24 108.5h528zM61 288q3 49 23.5 91.5t55 73.5t78.5 47.5t93 16.5q48 0 92 -18t79 -49.5t55.5 -73.5t22.5 -88h-499z" />
    <glyph glyph-name="igrave" unicode="&#xec;" horiz-adv-x="184" 
d="M-47 766l-14 -23l238 -138l13 23zM106 530h-28v-530h28v530z" />
    <glyph glyph-name="iacute" unicode="&#xed;" horiz-adv-x="184" 
d="M-5 628l13 -23l238 138l-14 23zM106 530h-28v-530h28v530z" />
    <glyph glyph-name="icircumflex" unicode="&#xee;" horiz-adv-x="184" 
d="M92 748l-195 -110l25 -15l170 94l170 -94l26 15zM106 530h-28v-530h28v530z" />
    <glyph glyph-name="idieresis" unicode="&#xef;" horiz-adv-x="184" 
d="M47 734h-29v-116h29v116zM167 734h-29v-116h29v116zM106 530h-28v-530h28v530z" />
    <glyph glyph-name="eth" unicode="&#xf0;" horiz-adv-x="641" 
d="M69 265q0 53 19 99.5t53 80.5t80.5 53t100.5 19q49 0 94.5 -19t80.5 -54t55 -81t20 -97q0 -53 -18.5 -99.5t-52.5 -81t-80.5 -53.5t-100.5 -19q-53 0 -99 19t-80 53t-53 80.5t-19 99.5zM308 641q69 -36 123 -82t91 -104l-2 -2q-35 42 -88.5 66t-110.5 24q-59 -1 -110 -21
t-88.5 -57t-59 -88t-22.5 -113q1 -66 24 -118t62.5 -87.5t89.5 -53.5t103 -18q52 1 102 20t90.5 54.5t64 87.5t23.5 117q0 116 -58.5 210.5t-199.5 177.5l163 65l-19 21l-175 -70q-75 39 -166 70l-34 -15q49 -17 88 -33t78 -35l-180 -73l20 -20z" />
    <glyph glyph-name="ntilde" unicode="&#xf1;" horiz-adv-x="641" 
d="M481 686q-22 -13 -37 -18t-33 -5q-24 0 -41.5 5.5t-47.5 21.5q-31 15 -49 19.5t-36 4.5q-32 0 -55 -9.5t-43 -25.5l20 -20q14 11 34.5 19t43.5 8q19 0 35 -5.5t49 -22.5q25 -15 46.5 -20t44.5 -5t45.5 9t43.5 23zM106 530h-28v-530h28v305q0 99 57.5 155t157.5 57
q44 0 82.5 -12t67.5 -38q31 -28 48 -74t17 -113v-280h28v280q0 145 -77 210q-64 53 -166 53q-70 0 -130 -30.5t-83 -84.5h-2v102z" />
    <glyph glyph-name="ograve" unicode="&#xf2;" horiz-adv-x="641" 
d="M201 766l-14 -23l238 -138l13 23zM41 265q0 -59 21 -110t59 -88.5t89 -58.5t110 -21t110 21t89 59t59 88.5t21 109.5q0 58 -21 109t-59 89t-89 59t-110 21t-110 -21t-89 -59t-59 -89t-21 -109zM69 265q0 53 19 99.5t53 80.5t80 53t99 19t99 -19t80 -53t53 -80.5t19 -99.5
t-19 -99.5t-53 -80.5t-80 -53t-99 -19t-99 19t-80 53t-53 80.5t-19 99.5z" />
    <glyph glyph-name="oacute" unicode="&#xf3;" horiz-adv-x="641" 
d="M198 628l13 -23l238 138l-14 23zM41 265q0 -59 21 -110t59 -88.5t89 -58.5t110 -21t110 21t89 59t59 88.5t21 109.5q0 58 -21 109t-59 89t-89 59t-110 21t-110 -21t-89 -59t-59 -89t-21 -109zM69 265q0 53 19 99.5t53 80.5t80 53t99 19t99 -19t80 -53t53 -80.5t19 -99.5
t-19 -99.5t-53 -80.5t-80 -53t-99 -19t-99 19t-80 53t-53 80.5t-19 99.5z" />
    <glyph glyph-name="ocircumflex" unicode="&#xf4;" horiz-adv-x="641" 
d="M320 748l-195 -110l25 -15l170 94l170 -94l26 15zM41 265q0 -59 21 -110t59 -88.5t89 -58.5t110 -21t110 21t89 59t59 88.5t21 109.5q0 58 -21 109t-59 89t-89 59t-110 21t-110 -21t-89 -59t-59 -89t-21 -109zM69 265q0 53 19 99.5t53 80.5t80 53t99 19t99 -19t80 -53
t53 -80.5t19 -99.5t-19 -99.5t-53 -80.5t-80 -53t-99 -19t-99 19t-80 53t-53 80.5t-19 99.5z" />
    <glyph glyph-name="otilde" unicode="&#xf5;" horiz-adv-x="641" 
d="M481 686q-22 -13 -37 -18t-33 -5q-24 0 -41.5 5.5t-47.5 21.5q-31 15 -49 19.5t-36 4.5q-32 0 -55 -9.5t-43 -25.5l20 -20q14 11 34.5 19t43.5 8q19 0 35 -5.5t49 -22.5q25 -15 46.5 -20t44.5 -5t45.5 9t43.5 23zM41 265q0 -59 21 -110t59 -88.5t89 -58.5t110 -21t110 21
t89 59t59 88.5t21 109.5q0 58 -21 109t-59 89t-89 59t-110 21t-110 -21t-89 -59t-59 -89t-21 -109zM69 265q0 53 19 99.5t53 80.5t80 53t99 19t99 -19t80 -53t53 -80.5t19 -99.5t-19 -99.5t-53 -80.5t-80 -53t-99 -19t-99 19t-80 53t-53 80.5t-19 99.5z" />
    <glyph glyph-name="odieresis" unicode="&#xf6;" horiz-adv-x="641" 
d="M275 734h-29v-116h29v116zM395 734h-29v-116h29v116zM41 265q0 -59 21 -110t59 -88.5t89 -58.5t110 -21t110 21t89 59t59 88.5t21 109.5q0 58 -21 109t-59 89t-89 59t-110 21t-110 -21t-89 -59t-59 -89t-21 -109zM69 265q0 53 19 99.5t53 80.5t80 53t99 19t99 -19t80 -53
t53 -80.5t19 -99.5t-19 -99.5t-53 -80.5t-80 -53t-99 -19t-99 19t-80 53t-53 80.5t-19 99.5z" />
    <glyph glyph-name="divide" unicode="&#xf7;" horiz-adv-x="600" 
d="M50 264v-28h500v28h-500zM315 81h-30v-81h30v81zM315 500h-30v-81h30v81z" />
    <glyph glyph-name="oslash" unicode="&#xf8;" horiz-adv-x="641" 
d="M69 265q0 53 19 99.5t53 80.5t80 53t99 19q77 0 137 -40l-297 -409q-43 34 -67 85.5t-24 111.5zM571 265q0 -53 -19 -99.5t-53 -80.5t-80 -53t-99 -19q-76 0 -138 39l298 410q43 -35 67 -86t24 -111zM41 265q0 -67 27.5 -124t76.5 -94l-60 -82l22 -17l60 83
q68 -44 153 -44q59 0 110 21t89 59t59 88.5t21 109.5q0 66 -27 122.5t-76 96.5l60 84l-21 17l-62 -86q-66 44 -153 44q-59 0 -110 -21t-89 -59t-59 -89t-21 -109z" />
    <glyph glyph-name="ugrave" unicode="&#xf9;" horiz-adv-x="641" 
d="M201 766l-14 -23l238 -138l13 23zM536 0h28v530h-28v-301q0 -102 -57 -158.5t-158 -57.5q-44 0 -82.5 12t-67.5 38q-31 28 -48 74t-17 113v280h-28v-280q0 -145 77 -210q64 -53 166 -53q73 0 131.5 31t81.5 89h2v-107z" />
    <glyph glyph-name="uacute" unicode="&#xfa;" horiz-adv-x="641" 
d="M203 628l13 -23l238 138l-14 23zM536 0h28v530h-28v-301q0 -102 -57 -158.5t-158 -57.5q-44 0 -82.5 12t-67.5 38q-31 28 -48 74t-17 113v280h-28v-280q0 -145 77 -210q64 -53 166 -53q73 0 131.5 31t81.5 89h2v-107z" />
    <glyph glyph-name="ucircumflex" unicode="&#xfb;" horiz-adv-x="641" 
d="M320 748l-195 -110l25 -15l170 94l170 -94l26 15zM536 0h28v530h-28v-301q0 -102 -57 -158.5t-158 -57.5q-44 0 -82.5 12t-67.5 38q-31 28 -48 74t-17 113v280h-28v-280q0 -145 77 -210q64 -53 166 -53q73 0 131.5 31t81.5 89h2v-107z" />
    <glyph glyph-name="udieresis" unicode="&#xfc;" horiz-adv-x="641" 
d="M275 734h-29v-116h29v116zM395 734h-29v-116h29v116zM536 0h28v530h-28v-301q0 -102 -57 -158.5t-158 -57.5q-44 0 -82.5 12t-67.5 38q-31 28 -48 74t-17 113v280h-28v-280q0 -145 77 -210q64 -53 166 -53q73 0 131.5 31t81.5 89h2v-107z" />
    <glyph glyph-name="yacute" unicode="&#xfd;" horiz-adv-x="481" 
d="M123 628l13 -23l238 138l-14 23zM42 530h-31l210 -529l-94 -214h32l321 743h-33l-209 -491z" />
    <glyph glyph-name="thorn" unicode="&#xfe;" horiz-adv-x="681" 
d="M106 740h-28v-953h28v353h2q33 -68 100 -110.5t151 -42.5q59 0 110 21t89.5 59t59.5 88.5t21 109.5q0 58 -21 109t-59.5 89t-89.5 59t-110 21q-26 0 -58.5 -6.5t-69 -23.5t-69 -48t-54.5 -78h-2v353zM106 262q0 56 20.5 103.5t56.5 81.5t82 52t95 18q53 0 99 -19
t80.5 -53t53 -80.5t18.5 -99.5t-18.5 -99.5t-52.5 -80.5t-80.5 -53t-99.5 -19q-54 0 -100.5 20.5t-81 56.5t-53.5 80.5t-19 91.5z" />
    <glyph glyph-name="ydieresis" unicode="&#xff;" horiz-adv-x="481" 
d="M195 734h-29v-116h29v116zM315 734h-29v-116h29v116zM42 530h-31l210 -529l-94 -214h32l321 743h-33l-209 -491z" />
    <glyph glyph-name="OE" unicode="&#x152;" horiz-adv-x="1178" 
d="M1117 713v27h-345v-229h-2q-16 53 -49 97.5t-79.5 77t-103.5 50t-120 17.5q-78 0 -146.5 -28t-120.5 -79.5t-81 -122t-29 -153.5t29 -153.5t81.5 -122t122 -79.5t148.5 -28q62 0 118.5 18t102.5 50.5t79 76.5t48 97h2v-229h345v27h-315v332h315v27h-315v327h315zM71 370
q0 77 26.5 142.5t74.5 113.5t112 74t136 26q82 0 148 -30.5t110.5 -81t68.5 -111.5t25 -121v-22q-2 -63 -26 -124.5t-69.5 -112t-111 -80t-145.5 -29.5q-72 0 -136 26t-112 74t-74.5 113.5t-26.5 142.5z" />
    <glyph glyph-name="oe" unicode="&#x153;" horiz-adv-x="1156" 
d="M1116 263q0 54 -20.5 104.5t-57.5 89t-88 60.5t-109 22q-32 0 -68.5 -8.5t-72.5 -29t-67.5 -57.5t-49.5 -91l-2 -4q-8 25 -19 47t-31 48q-39 47 -94 73t-117 26q-59 0 -110 -21t-89 -59t-59 -89t-21 -110v1q0 -59 21 -110t59 -88.5t89 -58.5t110 -21q37 0 74 10t72 32
t65.5 59t51.5 90h2q14 -50 43.5 -87.5t67 -60t76.5 -33t73 -10.5q80 0 151 42q42 28 62.5 58t36.5 68h-31q-24 -68 -86 -105t-133 -37q-44 0 -87 15.5t-78 47t-57 79t-25 108.5h518zM568 263q0 -47 -18 -92t-51.5 -80.5t-79.5 -56.5t-99 -21t-99 19t-80 53t-53 80.5
t-19 99.5t19 99.5t53 80.5t80 53t99 19q55 0 101 -22t79 -58.5t50.5 -82t17.5 -91.5zM599 289q6 48 26.5 89.5t53 71.5t74 46.5t87.5 16.5q58 0 103.5 -22t76 -57t46 -73.5t17.5 -71.5h-484z" />
    <glyph glyph-name="Scaron" unicode="&#x160;" horiz-adv-x="518" 
d="M260 808l195 111l-25 14l-170 -94l-170 94l-26 -15zM45 187q4 -50 24.5 -88.5t51.5 -63t67 -36.5t71 -12q41 0 80 15t69.5 43t48 66.5t17.5 82.5q0 53 -19.5 89.5t-47.5 58t-54 31t-55 17.5l-8 2q-47 12 -80 23.5t-60 30t-43 47.5t-16 71q0 72 48.5 116.5t120.5 44.5
q42 0 72 -13.5t48.5 -35t28 -46t14.5 -50.5h30q-11 85 -65.5 128.5t-125.5 43.5q-84 0 -142.5 -51.5t-58.5 -141.5q0 -48 19.5 -82t49 -54t58.5 -30t66 -20h1l5 -1q37 -10 66 -20.5t56 -30t44.5 -52t17.5 -79.5q0 -38 -15.5 -71t-42 -56.5t-60 -36t-68.5 -12.5q-25 0 -53 8
t-55.5 27t-48 53.5t-26.5 84.5h-30z" />
    <glyph glyph-name="scaron" unicode="&#x161;" horiz-adv-x="426" 
d="M214 623l195 111l-25 14l-170 -94l-170 94l-26 -15zM48 147q0 -73 48 -116.5t115 -43.5q66 0 110.5 45t44.5 114q-2 39 -15.5 65.5t-34 42.5t-43 24t-58.5 18l-4 1q-60 17 -87 40t-29 69q0 49 32 80t84 31q48 0 80 -28t32 -84h28q0 66 -39.5 101.5t-100.5 36.5
q-62 0 -103 -36.5t-41 -100.5q1 -33 12 -55.5t29.5 -37.5t41.5 -24t60 -20q66 -14 96.5 -43.5t31.5 -83.5q0 -55 -35 -92t-92 -37q-59 0 -97 36t-38 98h-28z" />
    <glyph glyph-name="Ydieresis" unicode="&#x178;" horiz-adv-x="554" 
d="M232 919h-29v-116h29v116zM352 919h-29v-116h29v116zM48 740h-33l247 -485v-255h30v255l247 485h-34l-228 -451z" />
    <glyph glyph-name="florin" unicode="&#x192;" 
d="M356 562l9 51q1 3 4 18q9 40 20 68.5t33 50.5q32 32 90 36q11 0 21 -2h3l6 26q-12 3 -27 3q-29 0 -58 -10.5t-52 -29.5q-29 -26 -44 -62t-26 -98l-10 -51h-142l-6 -27h144l-95 -504q-6 -34 -13 -58.5t-22.5 -47t-44 -36.5t-71.5 -14q-20 0 -46 7q-5 1 -8 2l-6 -28
q27 -8 60 -8q52 0 86 17t53 44.5t27.5 56t16.5 71.5l94 498h138l7 27h-141z" />
    <glyph glyph-name="circumflex" unicode="&#x2c6;" 
d="M277 748l-195 -110l25 -15l170 94l170 -94l26 15z" />
    <glyph glyph-name="tilde" unicode="&#x2dc;" 
d="M438 686q-22 -13 -37 -18t-33 -5q-24 0 -41.5 5.5t-47.5 21.5q-31 15 -49 19.5t-36 4.5q-32 0 -55 -9.5t-43 -25.5l20 -20q14 11 34.5 19t43.5 8q19 0 35 -5.5t49 -22.5q25 -15 46.5 -20t44.5 -5t45.5 9t43.5 23z" />
    <glyph glyph-name="endash" unicode="&#x2013;" horiz-adv-x="500" 
d="M35 291v-29h430v29h-430z" />
    <glyph glyph-name="emdash" unicode="&#x2014;" horiz-adv-x="1000" 
d="M35 291v-29h930v29h-930z" />
    <glyph glyph-name="quoteleft" unicode="&#x2018;" horiz-adv-x="277" 
d="M123 740h-33l64 -154h33z" />
    <glyph glyph-name="quoteright" unicode="&#x2019;" horiz-adv-x="277" 
d="M90 586h33l64 154h-33z" />
    <glyph glyph-name="quotesinglbase" unicode="&#x201a;" horiz-adv-x="277" 
d="M90 -72h33l64 154h-33z" />
    <glyph glyph-name="quotedblleft" unicode="&#x201c;" horiz-adv-x="370" 
d="M125 740h-33l64 -154h33zM214 740h-33l64 -154h33z" />
    <glyph glyph-name="quotedblright" unicode="&#x201d;" horiz-adv-x="370" 
d="M181 586h33l64 154h-33zM92 586h33l64 154h-33z" />
    <glyph glyph-name="quotedblbase" unicode="&#x201e;" horiz-adv-x="370" 
d="M181 -72h33l64 154h-33zM92 -72h33l64 154h-33z" />
    <glyph glyph-name="dagger" unicode="&#x2020;" horiz-adv-x="573" 
d="M301 740h-30v-214h-188v-30h188v-596h30v596h190v30h-190v214z" />
    <glyph glyph-name="daggerdbl" unicode="&#x2021;" horiz-adv-x="573" 
d="M303 740h-30v-185h-190v-30h190v-410h-190v-30h190v-185h30v185h188v30h-188v410h188v30h-188v185z" />
    <glyph glyph-name="bullet" unicode="&#x2022;" horiz-adv-x="375" 
d="M189 532q-32 0 -60.5 -12.5t-49.5 -34t-32.5 -49.5t-11.5 -59t12 -59t33 -50t49 -34t59 -12t58.5 12t48.5 33.5t33 49.5t12 60t-11.5 60t-32.5 49.5t-48.5 33.5t-58.5 12z" />
    <glyph glyph-name="ellipsis" unicode="&#x2026;" horiz-adv-x="1000" 
d="M182 82h-30v-82h30v82zM515 82h-30v-82h30v82zM848 82h-30v-82h30v82z" />
    <glyph glyph-name="perthousand" unicode="&#x2030;" horiz-adv-x="1089" 
d="M20 590q0 -71 46 -117t117 -46t117 46t46 117t-46 117t-117 46t-117 -46t-46 -117zM318 590q0 -60 -37.5 -99t-97.5 -39t-97.5 39t-37.5 99t37.5 99t97.5 39t97.5 -39t37.5 -99zM369 150q0 -71 46 -117t117 -46t117 46t46 117t-46 117t-117 46t-117 -46t-46 -117z
M667 150q0 -60 -37.5 -99t-97.5 -39t-97.5 39t-37.5 99t37.5 99t97.5 39t97.5 -39t37.5 -99zM744 150q0 -71 46 -117t117 -46t117 46t46 117t-46 117t-117 46t-117 -46t-46 -117zM1042 150q0 -60 -37.5 -99t-97.5 -39t-97.5 39t-37.5 99t37.5 99t97.5 39t97.5 -39t37.5 -99z
M601 740h-32l-457 -740h32z" />
    <glyph glyph-name="guilsinglleft" unicode="&#x2039;" horiz-adv-x="248" 
d="M53 275l111 -191l20 26l-96 165l96 168l-20 26z" />
    <glyph glyph-name="guilsinglright" unicode="&#x203a;" horiz-adv-x="248" 
d="M84 469l-20 -26l96 -168l-96 -165l20 -26l111 191z" />
    <glyph glyph-name="trademark" unicode="&#x2122;" horiz-adv-x="990" 
d="M10 740l-1 -24h124v-420h27v420h125v24h-275zM385 740h-37v-444h27v404h2l208 -404h16l208 405h2v-405h27v444h-36l-209 -402z" />
    </font>
</defs>
</svg>
