<?xml version="1.0" encoding="utf-8"?>
<!-- Generator: Adobe Illustrator 24.0.0, SVG Export Plug-In . SVG Version: 6.00 Build 0)  -->
<svg version="1.1" id="Layer_1" xmlns="http://www.w3.org/2000/svg" xmlns:xlink="http://www.w3.org/1999/xlink" x="0px" y="0px"
	 viewBox="0 0 24.8 18.4" style="enable-background:new 0 0 24.8 18.4;" xml:space="preserve">
<style type="text/css">
	.st0{fill:#010101;}
</style>
<g>
	<g>
		<path class="st0" d="M19.8,15.5h-4.4v-2.2h4.4c1.5,0,2.8-1.3,2.8-2.8c0-1.5-1.3-2.8-2.8-2.8l-3,0l-0.1-1c-0.3-2.5-2.3-4.4-4.9-4.4
			C9.2,2.2,7,4.4,7,7.1v1.1L4.8,8.3c-1.4,0-2.5,1.1-2.5,2.5s1.1,2.4,2.4,2.4h4.1v2.2H4.7c-2.6,0-4.7-2.1-4.7-4.7
			c0-2.6,2.1-4.7,4.7-4.7l0.1,0C5.3,2.6,8.3,0,11.9,0c3.3,0,6.1,2.3,6.9,5.4l1,0c2.8,0,5,2.3,5,5S22.6,15.5,19.8,15.5z"/>
		<rect x="11.3" y="10.3" class="st0" width="2.8" height="8.2"/>
		<polyline class="st0" points="16.4,10.4 12.7,6.7 9,10.4 		"/>
	</g>
</g>
</svg>
