<?xml version="1.0" encoding="utf-8"?>
<!-- Generator: Adobe Illustrator 24.0.2, SVG Export Plug-In . SVG Version: 6.00 Build 0)  -->
<svg version="1.1" id="Layer_2_1_" xmlns="http://www.w3.org/2000/svg" xmlns:xlink="http://www.w3.org/1999/xlink" x="0px" y="0px"
	 viewBox="0 0 74.6 77.8" style="enable-background:new 0 0 74.6 77.8;" xml:space="preserve">
<style type="text/css">
	.st0{stroke:#FFFFFF;stroke-width:0.4725;stroke-miterlimit:10;}
</style>
<g>
	<path class="st0" d="M32.1,55.9h10.7v-7.2H32.1C32.1,48.7,32.1,55.9,32.1,55.9z M34.4,51h6.1v2.6h-6.1C34.4,53.6,34.4,51,34.4,51z"
		/>
	<path class="st0" d="M11.5,52.4h10.7v-7.2H11.5V52.4z M13.9,47.5h6.1v2.6h-6.1V47.5z"/>
	<path class="st0" d="M63.5,45.2H52.7v7.2h10.7V45.2z M61.1,50.1h-6.1v-2.6h6.1V50.1z"/>
	<path class="st0" d="M11.5,66.5h10.7V55.8H11.5V66.5z M19.9,64.2h-1.9v-6.1h1.9V64.2z M13.9,58.1h1.9v6.1h-1.9V58.1z"/>
	<path class="st0" d="M63.5,55.8H52.7v10.7h10.7V55.8z M55.1,58.1h1.9v6.1h-1.9V58.1z M61.1,64.2h-1.9v-6.1h1.9V64.2z"/>
	<path class="st0" d="M69.3,42.8h5l-7.9-14.7H22v-8.4h-7.2v8.4H8.5L0.7,42.8h5v28.4h-3v2.3h21.9V77h7.5h10.7h7.5v-3.5h21.9v-2.3h-3
		V42.8H69.3z M17.1,22.1h2.6v6.1h-2.6V22.1z M4.5,40.5l5.4-10h4.8h7.2h42.9l5.4,10h-1.1H43.9l-6.4-4.8L31,40.5H5.6H4.5z M7.9,71.2
		V42.8h20l-3.4,2.5v25.9H7.9z M34.4,74.7V62.1h6.1v12.6C40.5,74.7,34.4,74.7,34.4,74.7z M48.1,74.7h-5.1V59.7H32.2v14.9h-5.1V46.4
		l10.5-7.8l10.5,7.8V74.7z M47,42.8h20v28.4H50.4V45.3L47,42.8z"/>
</g>
</svg>
