<?xml version="1.0" encoding="utf-8"?>
<!-- Generator: Adobe Illustrator 24.0.3, SVG Export Plug-In . SVG Version: 6.00 Build 0)  -->
<svg version="1.1" id="Layer_1" xmlns="http://www.w3.org/2000/svg" xmlns:xlink="http://www.w3.org/1999/xlink" x="0px" y="0px"
	 viewBox="0 0 2776 1991.1" style="enable-background:new 0 0 2776 1991.1;" xml:space="preserve">
<style type="text/css">
	.st0{fill:#FFFFFF;}
	.st1{fill:#22B473;}
</style>
<g>
	<g>
		<path class="st0" d="M0,1391.9h141.3l290.3,445.2l1.7,1.7h-1.7l1.7-1.7v-445.2H540v599.2H404.6l-296.2-459.6h-1.7v459.6H0V1391.9z
			"/>
		<path class="st0" d="M1009.7,1391.9h106.6v599.2h-106.6V1391.9z"/>
		<path class="st0" d="M1586.1,1391.9h106.6v502.7h254.7v96.5h-361.4V1391.9z"/>
		<path class="st0" d="M2363.8,1391.9h396.9v96.5h-290.3v147.3h275.1v96.5h-275.1v162.5H2776v96.5h-412.2V1391.9z"/>
	</g>
	<g>
		<path class="st1" d="M1519,212.1l-335.6,535.5c-3.4,5.4-9.3,8.6-15.6,8.6H937.3c-14.5,0-23.3-15.9-15.6-28.2L1372.4,8.6
			c7.2-11.5,24-11.5,31.2,0L1519,192.6C1522.7,198.5,1522.7,206.1,1519,212.1z"/>
		<path class="st1" d="M1838.7,756.3h-543.8c-14.5,0-23.3-16-15.6-28.3l272-433.9c7.2-11.5,24-11.5,31.3,0l271.8,433.9
			C1862,740.4,1853.2,756.3,1838.7,756.3z"/>
	</g>
</g>
</svg>
