<?xml version="1.0" encoding="utf-8"?>
<!-- Generator: Adobe Illustrator 24.0.0, SVG Export Plug-In . SVG Version: 6.00 Build 0)  -->
<svg version="1.1" id="Layer_1" xmlns="http://www.w3.org/2000/svg" xmlns:xlink="http://www.w3.org/1999/xlink" x="0px" y="0px"
	 viewBox="0 0 10.4 11.9" style="enable-background:new 0 0 10.4 11.9;" xml:space="preserve">
<style type="text/css">
	.st0{fill:#010101;}
</style>
<path class="st0" d="M10.4,6C10.3,6,10.3,6,10.4,6c-3.5,2-6.9,4-10.3,6c0,0,0,0,0,0c0,0,0,0,0,0C0,7.9,0,4,0,0c0,0,0,0,0.1,0
	c0.1,0.1,0.2,0.1,0.3,0.2c0.3,0.2,0.5,0.3,0.8,0.5C3.8,2.2,6.4,3.7,9,5.2c0.4,0.2,0.8,0.5,1.2,0.7C10.3,5.9,10.3,5.9,10.4,6z M7.9,6
	C7.9,5.9,7.9,5.9,7.9,6C5.7,4.7,3.5,3.4,1.3,2.1c0,0,0,0,0,0c0,0,0,0.1,0,0.1c0,2.5,0,4.9,0,7.4c0,0,0,0.1,0,0.1c0,0,0,0,0,0
	c0,0,0,0,0,0C3.5,8.5,5.7,7.3,7.9,6C7.9,6,7.9,6,7.9,6z"/>
</svg>
