<?xml version="1.0" encoding="utf-8"?>
<!-- Generator: Adobe Illustrator 24.0.1, SVG Export Plug-In . SVG Version: 6.00 Build 0)  -->
<svg version="1.1" id="Layer_1" xmlns="http://www.w3.org/2000/svg" xmlns:xlink="http://www.w3.org/1999/xlink" x="0px" y="0px"
	 viewBox="0 0 86.5 34.3" style="enable-background:new 0 0 86.5 34.3;" xml:space="preserve">
<style type="text/css">
	.st0{fill:#1EB473;}
	.st1{fill:#FFFFFF;}
</style>
<g>
	<polygon class="st0" points="14.3,13.3 6.3,26.1 0,26.1 11.2,8.2 	"/>
	<polygon class="st0" points="22.3,26.1 8.2,26.1 15.3,14.8 	"/>
	<g>
		<g>
			<path class="st1" d="M39.2,26V8.3h1.8l8.2,12.4c0.3,0.4,0.5,0.8,0.8,1.3c0.3,0.5,0.5,0.9,0.7,1.2l0.2,0.4h0V8.3h1.6V26h-1.7
				l-8.1-12.3l-1.9-3h0V26H39.2z"/>
			<path class="st1" d="M55.9,26V8.3h1.7V26H55.9z"/>
			<path class="st1" d="M60.8,26V8.3h1.7v16.2h9.4V26H60.8z"/>
			<path class="st1" d="M74.1,26V8.3h12.1v1.5H75.7v6.4h9.5v1.4h-9.5v6.9h10.7V26H74.1z"/>
		</g>
	</g>
</g>
</svg>
