<?xml version="1.0" encoding="utf-8"?>
<!-- Generator: Adobe Illustrator 24.0.2, SVG Export Plug-In . SVG Version: 6.00 Build 0)  -->
<svg version="1.1" id="Layer_3" xmlns="http://www.w3.org/2000/svg" xmlns:xlink="http://www.w3.org/1999/xlink" x="0px" y="0px"
	 viewBox="0 0 74.6 77.8" style="enable-background:new 0 0 74.6 77.8;" xml:space="preserve">
<g>
	<g>
		<g>
			<g>
				<path d="M28.2,37.7c-0.1,0-0.1,0-0.2,0l-5-0.9c-0.3,0-0.5-0.2-0.6-0.4c-0.2-0.2-0.2-0.5-0.2-0.7l0.9-5c0.1-0.5,0.6-0.9,1.2-0.8
					c0.5,0.1,0.9,0.6,0.8,1.2l-0.7,4l4.1,0.7c0.5,0.1,0.9,0.6,0.8,1.2C29.1,37.4,28.7,37.7,28.2,37.7z"/>
			</g>
		</g>
		<g>
			<g>
				<path d="M37.5,77.8c-2.7,0-5.5-0.5-8.2-1.4c-6-2.2-10.8-6.6-13.5-12.4c-2.7-5.8-3-12.3-0.8-18.3c0.2-0.5,0.8-0.8,1.3-0.6
					c0.5,0.2,0.8,0.8,0.6,1.3c-2,5.5-1.7,11.4,0.7,16.8c2.5,5.3,6.9,9.4,12.4,11.4c11.4,4.1,24-1.7,28.2-13.1
					c2-5.5,1.7-11.4-0.7-16.7C55,39.3,50.6,35.3,45,33.3c-4.9-1.8-10.4-1.8-15.3,0.1c-2,0.7-3.8,1.8-5.5,3c-0.4,0.3-1.1,0.2-1.4-0.2
					c-0.3-0.4-0.2-1.1,0.2-1.4c1.8-1.4,3.9-2.5,6-3.3c5.4-2,11.3-2.1,16.7-0.1c6,2.2,10.8,6.6,13.5,12.4c2.7,5.8,3,12.3,0.8,18.3
					C56.5,71.8,47.3,77.8,37.5,77.8z"/>
			</g>
		</g>
	</g>
	<g>
		<g>
			<path d="M40.5,68.8h-6c-0.6,0-1-0.4-1-1v-2.7c-0.4-0.1-0.8-0.3-1.2-0.5l-1.9,1.9c-0.4,0.4-1,0.4-1.4,0l-4.2-4.2
				c-0.4-0.4-0.4-1,0-1.4l1.9-1.9c-0.2-0.4-0.3-0.8-0.5-1.2h-2.7c-0.6,0-1-0.4-1-1v-6c0-0.6,0.4-1,1-1h2.7c0.1-0.4,0.3-0.8,0.5-1.2
				l-1.9-1.9c-0.2-0.2-0.3-0.4-0.3-0.7s0.1-0.5,0.3-0.7l4.2-4.2c0.4-0.4,1-0.4,1.4,0l1.9,1.9c0.4-0.2,0.8-0.3,1.2-0.5v-2.7
				c0-0.6,0.4-1,1-1h6c0.6,0,1,0.4,1,1v2.7c0.4,0.1,0.8,0.3,1.2,0.5l1.9-1.9c0.4-0.4,1-0.4,1.4,0l4.2,4.2c0.2,0.2,0.3,0.4,0.3,0.7
				s-0.1,0.5-0.3,0.7l-1.9,1.9c0.2,0.4,0.3,0.8,0.5,1.2h2.7c0.6,0,1,0.4,1,1v6c0,0.6-0.4,1-1,1h-2.7c-0.1,0.4-0.3,0.8-0.5,1.2
				l1.9,1.9c0.4,0.4,0.4,1,0,1.4L46,66.5c-0.2,0.2-0.4,0.3-0.7,0.3l0,0c-0.3,0-0.5-0.1-0.7-0.3l-1.9-1.9c-0.4,0.2-0.8,0.3-1.2,0.5
				v2.7C41.5,68.4,41.1,68.8,40.5,68.8z M35.5,66.8h4v-2.4c0-0.4,0.3-0.8,0.7-1c0.8-0.2,1.5-0.5,2.1-0.9c0.4-0.2,0.9-0.1,1.2,0.2
				l1.7,1.7l2.8-2.8l-1.7-1.7c-0.3-0.3-0.4-0.8-0.2-1.2c0.4-0.7,0.7-1.4,0.9-2.1c0.1-0.4,0.5-0.7,1-0.7h2.4v-4h-2.4
				c-0.4,0-0.8-0.3-1-0.7c-0.2-0.8-0.5-1.5-0.9-2.1c-0.2-0.4-0.2-0.9,0.2-1.2l1.7-1.7l-2.8-2.8l-1.7,1.7c-0.3,0.3-0.8,0.4-1.2,0.2
				c-0.7-0.4-1.4-0.7-2.1-0.9c-0.4-0.1-0.7-0.5-0.7-1v-2.4h-4v2.4c0,0.4-0.3,0.8-0.7,1c-0.8,0.2-1.5,0.5-2.1,0.9
				c-0.4,0.2-0.9,0.2-1.2-0.2l-1.7-1.7L26.9,46l1.7,1.7c0.3,0.3,0.4,0.8,0.2,1.2c-0.4,0.7-0.7,1.4-0.9,2.1c-0.1,0.4-0.5,0.7-1,0.7
				h-2.4v4h2.4c0.4,0,0.8,0.3,1,0.7c0.2,0.8,0.5,1.5,0.9,2.1c0.2,0.4,0.2,0.9-0.2,1.2l-1.7,1.7l2.8,2.8l1.7-1.7
				c0.3-0.3,0.8-0.4,1.2-0.2c0.7,0.4,1.4,0.7,2.1,0.9c0.4,0.1,0.7,0.5,0.7,1V66.8z"/>
		</g>
	</g>
	<g>
		<g>
			<path d="M37.5,60.9c-3.9,0-7.1-3.2-7.1-7.1s3.2-7.1,7.1-7.1s7.1,3.2,7.1,7.1S41.4,60.9,37.5,60.9z M37.5,48.7
				c-2.8,0-5.1,2.3-5.1,5.1s2.3,5.1,5.1,5.1s5.1-2.3,5.1-5.1S40.3,48.7,37.5,48.7z"/>
		</g>
	</g>
</g>
</svg>
