<?xml version="1.0" standalone="no"?> <!DOCTYPE svg PUBLIC "-//W3C//DTD SVG 1.0//EN" "http://www.w3.org/TR/2001/REC-SVG-20010904/DTD/svg10.dtd" > <svg xmlns="http://www.w3.org/2000/svg" width="100%" height="100%">
<defs >
<font id="akzidenzgroteskroman" horiz-adv-x="423" ><font-face
    font-family="AkzidenzGrotesk"
    units-per-em="1000"
    panose-1="0 0 4 0 0 0 0 0 0 0"
    ascent="938"
    descent="-236"
    alphabetic="0" />
<missing-glyph horiz-adv-x="500" d="M63 0V770H438V0H63ZM125 63H375V708H125V63Z" />
<glyph unicode=" " glyph-name="space" horiz-adv-x="278" />
<glyph unicode="!" glyph-name="exclam" horiz-adv-x="296" d="M132 147L107 417V712H189V417L164 147H132ZM104 0V94H192V0H104Z" />
<glyph unicode="&quot;" glyph-name="quotedbl" horiz-adv-x="389" d="M100 444V712H164V444H100ZM225 444V712H289V444H225Z" />
<glyph unicode="#" glyph-name="numbersign" horiz-adv-x="556" d="M291 0L322 213H198L167 0H99L130 213H28V271H138L158 409H56V467H166L197 680H265L234 467H358L389 680H457L426 467H528V409H418L398 271H500V213H390L359 0H291ZM330 271L350 409H226L206 271H330Z" />
<glyph unicode="$" glyph-name="dollar" horiz-adv-x="556" d="M318 290V70Q372 72 410 100T449 179Q449 222 403 253Q377 269 318 290ZM254 -123V-6Q164 -3 98 46T13 182L106 200Q121 144 159 110Q199 73 254 70V309Q158 343 117 380Q59 431 59 516Q59 586 122
636Q181 683 254 686V792H318V686Q394 683 450 642Q511 598 522 525L432 518Q404 604 318 610V392L357 376Q451 337 487 308Q543 261 543 188Q543 91 478 40Q420 -4 321 -6V-123H254ZM254 413V610Q212 608 184 584Q153 559 153 518Q153 477 185 450Q206 433 254
413Z" />
<glyph unicode="%" glyph-name="percent" horiz-adv-x="1000" d="M182 508Q182 458 202 428Q225 394 269 394Q313 394 336 428Q356 458 356 508Q356 557 336 588Q313 622 269 622Q225 622 204 590T182 508ZM250 -32L680 712H749L319 -32H250ZM106 508Q106 589
151 637T269 686Q341 686 386 638T432 508Q432 427 387 379T269 330Q197 330 152 378T106 508ZM568 172Q568 253 613 301T731 350Q803 350 848 302T894 172Q894 91 849 43T731 -6Q659 -6 614 42T568 172ZM644 172Q644 122 664 92Q687 58 731 58Q775 58 798 92Q818
122 818 172Q818 221 798 252Q775 286 731 286Q687 286 666 254T644 172Z" />
<glyph unicode="&amp;" glyph-name="ampersand" horiz-adv-x="648" d="M326 381L430 201Q468 276 480 333H558Q542 239 477 136Q516 82 573 82Q593 82 603 84V0Q590 -6 560 -6Q485 -6 419 68Q338 -6 244 -6Q160 -6 104 48Q45 104 45 193Q45 268 95 329Q140 383
214 415Q179 478 179 541Q179 618 222 665T340 712Q402 712 444 673T486 571Q486 452 326 381ZM370 128L245 344Q133 298 133 197Q133 145 168 108T253 70Q317 70 370 128ZM261 569Q261 529 294 451Q404 500 404 584Q404 613 386 630T339 648Q304 648 283 626T261
569Z" />
<glyph unicode="&apos;" glyph-name="quotesingle" horiz-adv-x="278" d="M107 444V712H171V444H107Z" />
<glyph unicode="(" glyph-name="parenleft" horiz-adv-x="315" d="M300 -172H234Q86 63 86 281Q86 497 235 730H301Q242 634 206 514Q168 389 168 282Q168 52 300 -172Z" />
<glyph unicode=")" glyph-name="parenright" horiz-adv-x="315" d="M15 730H81Q229 495 229 277Q229 61 80 -172H14Q73 -76 109 44Q147 169 147 276Q147 506 15 730Z" />
<glyph unicode="*" glyph-name="asterisk" horiz-adv-x="389" d="M128 394L77 430L150 530L30 565L50 626L164 590V712H228V589L340 629L359 566L245 529L318 438L269 395L198 491L128 394Z" />
<glyph unicode="+" glyph-name="plus" horiz-adv-x="600" d="M265 0V218H47V288H265V506H335V288H553V218H335V0H265Z" />
<glyph unicode="," glyph-name="comma" horiz-adv-x="278" d="M88 0V113H190V0Q190 -24 181 -69Q169 -121 153 -155H106Q130 -82 130 0H88Z" />
<glyph unicode="-" glyph-name="hyphen" horiz-adv-x="296" d="M46 213V295H250V213H46Z" />
<glyph unicode="." glyph-name="period" horiz-adv-x="278" d="M88 0V113H190V0H88Z" />
<glyph unicode="/" glyph-name="slash" horiz-adv-x="333" d="M13 -18L247 730H320L86 -18H13Z" />
<glyph unicode="0" glyph-name="zero" horiz-adv-x="556" d="M125 340Q125 196 176 129Q216 76 278 76Q340 76 380 129Q431 196 431 340Q431 484 380 552Q340 604 278 604Q216 604 176 552Q125 484 125 340ZM31 340Q31 477 86 572Q153 686 278 686Q403 686 470
572Q525 477 525 340Q525 203 470 109Q403 -6 278 -6Q153 -6 86 109Q31 203 31 340Z" />
<glyph unicode="1" glyph-name="one" horiz-adv-x="556" d="M271 0V495H126V559Q206 562 242 583Q287 609 300 680H365V0H271Z" />
<glyph unicode="2" glyph-name="two" horiz-adv-x="556" d="M68 0V89Q189 153 285 248Q410 371 410 477Q410 604 279 604Q217 604 184 564Q156 530 156 478Q156 445 165 393H77Q68 434 68 470Q68 563 121 622Q179 686 285 686Q383 686 443 627T504 469Q504 278
191 83V84L190 82H511V0H68Z" />
<glyph unicode="3" glyph-name="three" horiz-adv-x="556" d="M214 309V389Q227 389 252 388T289 387Q326 387 357 402Q410 429 410 491Q410 610 281 610Q213 610 177 560Q147 518 144 450L56 455Q62 686 283 686Q392 686 453 623Q504 570 504 494Q504 449 485
411Q462 368 423 354Q470 333 496 290T523 194Q523 119 480 68Q418 -6 281 -6Q166 -6 102 51Q34 111 33 225H121Q125 145 163 111T282 76Q345 76 384 102Q429 132 429 191Q429 261 384 289Q349 311 276 311Q235 311 214 309Z" />
<glyph unicode="4" glyph-name="four" horiz-adv-x="556" d="M338 0V163H37V245L360 680H432V245H527V163H432V0H338ZM338 245V535H336L125 245H338Z" />
<glyph unicode="5" glyph-name="five" horiz-adv-x="556" d="M474 680V598H157L146 422H148Q191 478 296 478Q405 478 466 402Q519 335 519 234Q519 130 454 62T286 -6Q133 -6 70 104Q43 149 37 213L131 218Q132 165 158 129Q196 76 281 76Q351 76 391 129Q425
173 425 234Q425 323 377 368Q340 402 290 402Q197 402 150 310L64 316L87 680H474Z" />
<glyph unicode="6" glyph-name="six" horiz-adv-x="556" d="M499 507L411 497Q403 549 371 579T293 610Q140 610 129 366H131Q145 393 180 416Q230 448 296 448Q393 448 454 388T515 231Q515 140 464 75Q400 -6 277 -6Q191 -6 129 56Q41 143 41 331Q41 476 90
567Q154 686 291 686Q458 686 499 507ZM143 221Q143 157 183 117T285 76Q347 76 387 116T427 221Q427 286 387 326T285 366Q224 366 184 326T143 221Z" />
<glyph unicode="7" glyph-name="seven" horiz-adv-x="556" d="M77 471V680H493V595Q493 547 440 455Q362 320 325 236Q272 114 254 0H146Q186 210 369 488Q417 561 417 598H147V471H77Z" />
<glyph unicode="8" glyph-name="eight" horiz-adv-x="556" d="M36 200Q36 307 127 365Q54 405 54 502Q54 570 92 617Q148 686 278 686Q408 686 464 617Q502 570 502 502Q502 405 429 365Q520 307 520 200Q520 122 468 65Q403 -6 278 -6Q153 -6 88 65Q36 122 36
200ZM130 205Q130 76 278 76Q426 76 426 205Q426 250 399 280Q360 322 278 322Q196 322 158 280Q130 250 130 205ZM142 501Q142 456 177 427T278 398Q344 398 379 427T414 501Q414 546 379 575T278 604Q212 604 177 575T142 501Z" />
<glyph unicode="9" glyph-name="nine" horiz-adv-x="556" d="M129 452Q129 371 176 332Q213 301 275 301Q335 301 374 335Q421 375 421 452Q421 510 388 552Q348 604 275 604Q202 604 162 552Q129 510 129 452ZM60 166L145 183Q172 70 267 70Q351 70 394 148Q428
210 429 301L428 303Q361 219 251 219Q171 219 111 274Q41 338 41 450Q41 552 110 620Q176 686 269 686Q515 686 515 347Q515 211 471 121Q408 -6 270 -6Q105 -6 60 166Z" />
<glyph unicode=":" glyph-name="colon" horiz-adv-x="278" d="M190 113V0H88V113H190ZM190 377H88V490H190V377Z" />
<glyph unicode=";" glyph-name="semicolon" horiz-adv-x="278" d="M88 0V113H190V0Q190 -24 181 -69Q169 -121 153 -155H106Q130 -82 130 0H88ZM88 377V490H190V377H88Z" />
<glyph unicode="&lt;" glyph-name="less" horiz-adv-x="600" d="M553 514V440L136 253L553 66V-8L47 224V282L553 514Z" />
<glyph unicode="=" glyph-name="equal" horiz-adv-x="600" d="M47 317V387H553V317H47ZM47 119V189H553V119H47Z" />
<glyph unicode="&gt;" glyph-name="greater" horiz-adv-x="600" d="M47 -8V66L464 253L47 440V514L553 282V224L47 -8Z" />
<glyph unicode="?" glyph-name="question" horiz-adv-x="574" d="M242 154V392H279Q434 392 434 522Q434 573 392 610T295 648Q149 648 146 482H58Q57 590 121 657T286 724Q385 724 448 669Q516 611 516 509Q516 423 463 369T324 310V154H242ZM239 0V94H327V0H239Z" />
<glyph unicode="@" glyph-name="at" horiz-adv-x="800" d="M263 291Q263 196 343 196Q408 196 460 275Q507 348 507 420Q507 459 486 485T425 511Q359 511 309 436Q263 366 263 291ZM540 492L559 556H621L534 266Q522 226 522 215Q522 196 547 196Q600 196 646
268T692 419Q692 531 608 603Q529 672 417 672Q287 672 198 578T108 356Q108 222 199 131T420 40Q496 40 565 72T678 163H736Q689 79 603 31T420 -18Q254 -18 149 88T44 356Q44 514 153 622T415 730Q558 730 656 643Q756 553 756 420Q756 303 677 215Q604 132 523
132Q461 132 458 199H456Q393 132 327 132Q265 132 226 176T187 285Q187 395 253 482Q324 575 427 575Q506 575 538 492H540Z" />
<glyph unicode="A" glyph-name="A" horiz-adv-x="648" d="M9 0L281 712H381L639 0H538L462 218H192L110 0H9ZM433 300L331 595H329L221 300H433Z" />
<glyph unicode="B" glyph-name="B" horiz-adv-x="685" d="M165 328V82H418Q549 82 549 198Q549 281 497 310Q463 328 384 328H165ZM165 630V410H382Q528 410 528 523Q528 594 481 617Q453 630 381 630H165ZM71 0V712H404Q523 712 582 651Q630 602 630 527Q630
473 601 432T526 377V375Q651 345 651 194Q651 127 614 77Q559 0 435 0H71Z" />
<glyph unicode="C" glyph-name="C" horiz-adv-x="778" d="M730 510L632 492Q614 564 551 609T407 654Q282 654 213 564Q151 483 151 356Q151 229 213 148Q282 58 407 58Q499 58 563 116T640 269L739 257Q715 134 621 58T407 -18Q242 -18 146 85T49 356Q49 524
145 627T407 730Q525 730 610 675Q699 617 730 510Z" />
<glyph unicode="D" glyph-name="D" horiz-adv-x="704" d="M71 0V712H340Q497 712 579 612Q655 519 655 352Q655 193 577 100Q494 0 340 0H71ZM165 630V82H324Q553 82 553 361Q553 630 332 630H165Z" />
<glyph unicode="E" glyph-name="E" horiz-adv-x="611" d="M71 0V712H571V630H165V410H518V328H165V82H581V0H71Z" />
<glyph unicode="F" glyph-name="F" horiz-adv-x="593" d="M71 0V712H527V630H165V418H501V336H165V0H71Z" />
<glyph unicode="G" glyph-name="G" horiz-adv-x="815" d="M662 -6V99H660Q582 -18 407 -18Q242 -18 146 85T49 356Q49 504 142 612Q244 730 407 730Q524 730 612 677Q704 621 741 520L647 495Q594 648 407 648Q292 648 219 562Q151 481 151 362Q151 235 213 154Q282
64 407 64Q522 64 589 122Q660 182 660 293H414V375H744V-6H662Z" />
<glyph unicode="H" glyph-name="H" horiz-adv-x="722" d="M71 0V712H165V410H557V712H651V0H557V328H165V0H71Z" />
<glyph unicode="I" glyph-name="I" horiz-adv-x="258" d="M82 0V712H176V0H82Z" />
<glyph unicode="J" glyph-name="J" horiz-adv-x="389" d="M213 210V712H307V154Q307 82 260 35Q208 -18 113 -18Q63 -18 17 -8V95Q54 76 100 76Q167 76 192 112Q213 141 213 210Z" />
<glyph unicode="K" glyph-name="K" horiz-adv-x="648" d="M71 0V712H165V367L504 712H620L334 418L631 0H517L269 350L165 248V0H71Z" />
<glyph unicode="L" glyph-name="L" horiz-adv-x="556" d="M71 0V712H165V82H520V0H71Z" />
<glyph unicode="M" glyph-name="M" horiz-adv-x="832" d="M74 0V712H198L416 134L634 712H758V0H664V573H662L454 0H378L170 573H168V0H74Z" />
<glyph unicode="N" glyph-name="N" horiz-adv-x="704" d="M71 0V712H166L543 150H545V712H633V0H539L161 561H159V0H71Z" />
<glyph unicode="O" glyph-name="O" horiz-adv-x="814" d="M49 356Q49 524 145 627T407 730Q572 730 668 627T765 356Q765 188 669 85T407 -18Q242 -18 146 85T49 356ZM151 356Q151 229 213 148Q282 58 407 58Q532 58 601 148Q663 229 663 356Q663 483 601 564Q532
654 407 654Q282 654 213 564Q151 483 151 356Z" />
<glyph unicode="P" glyph-name="P" horiz-adv-x="630" d="M71 0V712H427Q502 712 552 668Q613 613 613 507Q613 410 551 353Q496 304 419 304H165V0H71ZM165 630V386H383Q519 386 519 508Q519 630 396 630H165Z" />
<glyph unicode="Q" glyph-name="Q" horiz-adv-x="814" d="M747 -34L636 56Q545 -18 407 -18Q242 -18 146 85T49 356Q49 524 145 627T407 730Q572 730 668 627T765 356Q765 221 700 125L806 37L747 -34ZM151 356Q151 229 213 148Q282 58 407 58Q532 58 601 148Q663
229 663 356Q663 483 601 564Q532 654 407 654Q282 654 213 564Q151 483 151 356Z" />
<glyph unicode="R" glyph-name="R" horiz-adv-x="667" d="M71 0V712H393Q491 712 550 670Q622 618 622 507Q622 335 457 308L653 0H539L347 302H165V0H71ZM165 630V384H378Q528 384 528 507Q528 630 378 630H165Z" />
<glyph unicode="S" glyph-name="S" horiz-adv-x="667" d="M616 508L519 503Q515 578 462 618Q414 654 335 654Q273 654 230 632Q176 604 176 547Q176 472 293 440Q402 411 511 382Q628 330 628 203Q628 97 542 36Q465 -18 354 -18Q218 -18 138 38Q48 102 39 231L141
240Q148 58 350 58Q424 58 472 91Q526 129 526 200Q526 280 409 313Q300 341 191 368Q74 415 74 527Q74 624 155 680Q227 730 329 730Q446 730 520 677Q602 619 616 508Z" />
<glyph unicode="T" glyph-name="T" horiz-adv-x="556" d="M231 0V630H17V712H539V630H325V0H231Z" />
<glyph unicode="U" glyph-name="U" horiz-adv-x="684" d="M613 712V234Q613 114 541 48T342 -18Q215 -18 143 48T71 234V712H165V250Q165 64 342 64Q519 64 519 250V712H613Z" />
<glyph unicode="V" glyph-name="V" horiz-adv-x="610" d="M249 0L11 712H114L300 130H302L500 712H599L346 0H249Z" />
<glyph unicode="W" glyph-name="W" horiz-adv-x="999" d="M222 0L3 712H104L270 156H272L451 712H548L727 156H729L895 712H996L777 0H684L500 582H498L315 0H222Z" />
<glyph unicode="X" glyph-name="X" horiz-adv-x="610" d="M11 0L249 374L34 712H146L305 459L464 712H576L361 374L599 0H486L305 291L124 0H11Z" />
<glyph unicode="Y" glyph-name="Y" horiz-adv-x="628" d="M267 0V328L11 712H124L314 417L504 712H617L361 328V0H267Z" />
<glyph unicode="Z" glyph-name="Z" horiz-adv-x="611" d="M22 0V90L467 630H57V712H570V624L123 82H589V0H22Z" />
<glyph unicode="[" glyph-name="bracketleft" horiz-adv-x="315" d="M109 -154V712H297V648H191V-90H297V-154H109Z" />
<glyph unicode="\" glyph-name="backslash" horiz-adv-x="333" d="M247 -18L13 730H86L320 -18H247Z" />
<glyph unicode="]" glyph-name="bracketright" horiz-adv-x="315" d="M18 -154V-90H124V648H18V712H206V-154H18Z" />
<glyph unicode="^" glyph-name="asciicircum" horiz-adv-x="600" d="M47 257L271 680H329L553 257H477L300 592L123 257H47Z" />
<glyph unicode="_" glyph-name="underscore" horiz-adv-x="500" d="M0 -125V-75H500V-125H0Z" />
<glyph unicode="`" glyph-name="grave" horiz-adv-x="204" d="M96 582L-34 723H74L163 582H96Z" />
<glyph unicode="a" glyph-name="a" horiz-adv-x="500" d="M343 178V233Q221 216 179 200Q116 175 116 125Q116 52 208 52Q267 52 305 86T343 178ZM343 287V329Q343 381 318 403T231 426Q138 426 133 328L51 333Q67 490 232 490Q425 490 425 342V120Q425 66 460
66Q472 66 485 71V3Q457 -4 434 -4Q367 -4 351 62Q284 -12 181 -12Q117 -12 73 26T28 120Q28 212 112 249Q177 278 343 287Z" />
<glyph unicode="b" glyph-name="b" horiz-adv-x="556" d="M57 0V712H139V418H141Q194 490 294 490Q409 490 470 413Q522 345 522 239Q522 131 471 66Q410 -12 287 -12Q191 -12 140 57H139V0H57ZM434 239Q434 317 399 365Q360 420 285 420Q217 420 175 365Q136
314 136 239Q136 161 171 113Q210 58 285 58Q360 58 399 113Q434 161 434 239Z" />
<glyph unicode="c" glyph-name="c" horiz-adv-x="519" d="M486 329L398 320Q389 369 355 397T271 426Q192 426 153 365Q122 315 122 238Q122 160 155 110Q194 52 269 52Q330 52 367 86T406 181L494 174Q484 88 424 38T272 -12Q159 -12 97 55T34 234Q34 348 96
419T271 490Q350 490 407 450Q469 407 486 329Z" />
<glyph unicode="d" glyph-name="d" horiz-adv-x="556" d="M499 712V0H417V57H416Q365 -12 269 -12Q146 -12 85 66Q34 131 34 239Q34 345 87 413Q147 490 262 490Q363 490 415 418H417V712H499ZM122 239Q122 161 157 113Q196 58 271 58Q346 58 385 113Q420 161
420 239Q420 314 381 365Q339 420 271 420Q196 420 157 365Q122 317 122 239Z" />
<glyph unicode="e" glyph-name="e" horiz-adv-x="519" d="M485 221H122Q122 147 159 101Q198 52 266 52Q373 52 400 159L481 149Q435 -10 263 -12Q157 -13 94 60Q34 129 34 235Q34 355 91 422T262 490Q370 490 430 418Q485 351 485 240V221ZM122 285H397Q379 426
253 426Q196 426 159 383Q126 343 122 285Z" />
<glyph unicode="f" glyph-name="f" horiz-adv-x="278" d="M86 0V408H7V478H86V563Q86 641 118 676T219 712Q239 712 271 706V644Q245 648 226 648Q168 648 168 581V478H257V408H168V0H86Z" />
<glyph unicode="g" glyph-name="g" horiz-adv-x="556" d="M263 420Q197 420 158 376Q116 328 116 239Q116 161 154 111Q194 58 263 58Q332 58 376 114Q419 167 417 242Q413 420 263 420ZM417 412V478H499V-4Q499 -224 279 -224Q185 -224 127 -184Q62 -138 57 -49H145Q144
-104 183 -133Q219 -160 276 -160Q367 -160 399 -103Q417 -69 417 6V74H415Q348 -12 252 -12Q170 -12 112 37Q34 103 34 239Q34 350 87 417Q145 490 253 490Q368 490 415 413L417 412Z" />
<glyph unicode="h" glyph-name="h" horiz-adv-x="519" d="M63 0V712H145V414H147Q196 490 287 490Q456 490 456 315V0H374V307Q374 414 273 414Q216 414 181 380T145 288V0H63Z" />
<glyph unicode="i" glyph-name="i" horiz-adv-x="204" d="M61 0V478H143V0H61ZM61 618V712H143V618H61Z" />
<glyph unicode="j" glyph-name="j" horiz-adv-x="204" d="M143 478V-92Q143 -165 122 -196Q96 -236 28 -236Q-8 -236 -26 -232V-162Q-22 -162 -13 -164T3 -166Q61 -166 61 -111V478H143ZM61 618V712H143V618H61Z" />
<glyph unicode="k" glyph-name="k" horiz-adv-x="481" d="M63 0V712H145V273L333 476H432L258 287L473 0H370L202 228L145 167V0H63Z" />
<glyph unicode="l" glyph-name="l" horiz-adv-x="204" d="M61 0V712H143V0H61Z" />
<glyph unicode="m" glyph-name="m" horiz-adv-x="778" d="M63 0V478H139V418H141Q196 490 275 490Q379 490 414 407Q440 443 480 466T559 490Q715 490 715 316V0H633V320Q633 414 549 414Q504 414 470 391Q430 363 430 314V0H348V320Q348 414 264 414Q219 414
185 391Q145 363 145 314V0H63Z" />
<glyph unicode="n" glyph-name="n" horiz-adv-x="519" d="M63 0V478H145V414H147Q196 490 287 490Q456 490 456 315V0H374V307Q374 414 273 414Q216 414 181 380T145 288V0H63Z" />
<glyph unicode="o" glyph-name="o" horiz-adv-x="536" d="M34 239Q34 350 97 420T268 490Q376 490 439 420T502 239Q502 128 439 58T268 -12Q160 -12 97 58T34 239ZM122 239Q122 165 151 116Q188 52 268 52Q348 52 385 116Q414 165 414 239Q414 313 385 362Q348
426 268 426Q188 426 151 362Q122 313 122 239Z" />
<glyph unicode="p" glyph-name="p" horiz-adv-x="556" d="M57 -224V478H139V421H140Q161 450 202 470T293 490Q411 490 471 413Q522 346 522 239Q522 133 470 66Q409 -12 294 -12Q194 -12 141 60H139V-224H57ZM434 239Q434 317 399 365Q360 420 285 420Q210 420
171 365Q136 317 136 239Q136 164 175 113Q217 58 285 58Q360 58 399 113Q434 161 434 239Z" />
<glyph unicode="q" glyph-name="q" horiz-adv-x="556" d="M499 478V-224H417V60H415Q363 -12 262 -12Q147 -12 87 66Q34 133 34 239Q34 347 86 413Q146 490 266 490Q309 490 352 470T416 421H417V478H499ZM122 239Q122 161 157 113Q196 58 271 58Q339 58 381 113Q420
164 420 239Q420 317 385 365Q346 420 271 420Q196 420 157 365Q122 317 122 239Z" />
<glyph unicode="r" glyph-name="r" horiz-adv-x="333" d="M63 0V478H145V396H147Q176 444 214 464T316 484V394Q284 396 261 396Q206 396 173 353Q145 315 145 268V0H63Z" />
<glyph unicode="s" glyph-name="s" horiz-adv-x="481" d="M31 157L119 168Q119 107 162 77Q198 52 255 52Q362 52 362 134Q362 182 281 202Q206 220 131 238Q50 271 50 351Q50 419 108 457Q158 490 230 490Q299 490 357 458Q435 415 435 334L353 323Q353 373 317
401Q284 426 234 426Q132 426 132 355Q132 312 214 292Q356 257 368 252Q450 216 450 135Q450 64 386 24Q328 -12 243 -12Q157 -12 102 27Q39 71 31 157Z" />
<glyph unicode="t" glyph-name="t" horiz-adv-x="278" d="M7 408V478H86V627H168V478H257V408H168V104Q168 81 172 72Q179 58 201 58Q224 58 252 68V-2Q207 -12 171 -12Q114 -12 97 15Q86 32 86 82V408H7Z" />
<glyph unicode="u" glyph-name="u" horiz-adv-x="519" d="M456 478V0H374V64H372Q323 -12 232 -12Q63 -12 63 163V478H145V163Q145 64 246 64Q303 64 338 98T374 190V478H456Z" />
<glyph unicode="v" glyph-name="v" horiz-adv-x="444" d="M187 0L11 478H96L224 122H226L349 478H433L264 0H187Z" />
<glyph unicode="w" glyph-name="w" horiz-adv-x="741" d="M179 0L13 478H102L221 127H223L337 478H407L519 127H521L645 478H728L554 0H483L370 351H368L252 0H179Z" />
<glyph unicode="x" glyph-name="x" horiz-adv-x="407" d="M11 0L157 242L18 478H111L204 315L303 478H396L250 242L396 0H303L204 168L102 0H11Z" />
<glyph unicode="y" glyph-name="y" horiz-adv-x="444" d="M222 117L347 478H431L224 -105Q201 -169 177 -197Q142 -236 82 -236Q53 -236 13 -222V-151Q43 -160 66 -160Q119 -160 143 -93L176 -1L15 478H102L220 117H222Z" />
<glyph unicode="z" glyph-name="z" horiz-adv-x="426" d="M23 0V70L296 408H48V478H397V410L120 70H403V0H23Z" />
<glyph unicode="{" glyph-name="braceleft" horiz-adv-x="333" d="M280 712V648H232Q190 648 190 598V423Q190 309 116 279Q190 249 190 135V-40Q190 -90 232 -90H280V-154H225Q165 -154 137 -127T108 -38V135Q108 247 34 247V311Q108 311 108 423V596Q108 658
136 685T225 712H280Z" />
<glyph unicode="|" glyph-name="bar" horiz-adv-x="222" d="M76 -18V730H146V-18H76Z" />
<glyph unicode="}" glyph-name="braceright" horiz-adv-x="333" d="M53 -154V-90H101Q143 -90 143 -40V135Q143 249 217 279Q143 309 143 423V598Q143 648 101 648H53V712H108Q168 712 196 685T225 596V423Q225 311 299 311V247Q225 247 225 135V-38Q225 -100
197 -127T108 -154H53Z" />
<glyph unicode="~" glyph-name="asciitilde" horiz-adv-x="600" d="M105 181V181L69 235Q114 321 194 321Q234 321 309 287Q380 255 407 255Q450 255 495 325L531 271Q501 229 481 212Q447 185 406 185Q369 185 304 218T189 251Q137 251 105 181Z" />
</font>
</defs>
</svg>
