<?xml version="1.0" encoding="utf-8"?>
<!-- Generator: Adobe Illustrator 24.0.1, SVG Export Plug-In . SVG Version: 6.00 Build 0)  -->
<svg version="1.1" id="Layer_1" xmlns="http://www.w3.org/2000/svg" xmlns:xlink="http://www.w3.org/1999/xlink" x="0px" y="0px"
	 viewBox="0 0 28.6 16.1" style="enable-background:new 0 0 28.6 16.1;" xml:space="preserve">
<style type="text/css">
	.st0{fill:#666666;}
</style>
<path class="st0" d="M23.1,5c-0.5,0-1,0.1-1.4,0.2l-0.8-2.3c-0.2-0.5-0.2-1,0.1-1.4c0.2-0.4,0.7-0.6,0.7-0.6C21.9,0.8,21.9,0,21.6,0
	h-3.1c-0.2,0-0.3,0.1-0.3,0.3s0.2,0.3,0.3,0.3h1.8c0,0-0.1,0.2-0.2,0.3c-0.3,0.4-0.5,0.9-0.4,1.7h-9.4L10,1.7l1.8-0.8
	c0.2-0.1,0.2-0.4,0-0.4l-4.3,0C7.6,1.3,8.3,2,9.1,2l0.2,0.6L7.8,5.4C7.1,5.1,6.3,5,5.6,5C2.5,5,0,7.4,0,10.5c0,3.1,2.5,5.6,5.6,5.6
	c2.9,0,5.3-2.3,5.5-5.2h1.4c0.5,0,0.9-0.1,1.3-0.5c0.2-0.2,5-4.3,6.7-5.6l0.3,0.7c-1.9,0.9-3.2,2.8-3.2,5c0,3.1,2.5,5.6,5.6,5.6
	c3.1,0,5.6-2.5,5.6-5.6C28.6,7.4,26.2,5,23.1,5z M5.6,15c-2.5,0-4.5-2-4.5-4.5C1.1,8,3.1,6,5.6,6c0.6,0,1.2,0.1,1.7,0.3l-2.1,3.9
	c-0.1,0.2-0.1,0.3,0,0.5c0.1,0.1,0.3,0.2,0.4,0.2H10C9.8,13.2,7.9,15,5.6,15z M8.1,6.9c1,0.7,1.7,1.9,1.9,3.2H6.4L8.1,6.9z M11.1,10
	C10.9,8.3,10,6.8,8.6,5.9l1.1-2.1l2.5,6.2H11.1z M13.2,9.6l-2.5-6.2H20l0.1,0.3C18.9,4.8,13.9,9,13.2,9.6z M23.1,15
	c-2.5,0-4.5-2-4.5-4.5c0-1.8,1-3.3,2.5-4l1.5,4.2c0.1,0.2,0.3,0.3,0.5,0.3c0.1,0,0.1,0,0.2,0c0.3-0.1,0.4-0.4,0.3-0.6L22,6.2
	C22.4,6.1,22.7,6,23.1,6c2.5,0,4.5,2,4.5,4.5C27.6,13,25.6,15,23.1,15z"/>
</svg>
