<?xml version="1.0" encoding="utf-8"?>
<!-- Generator: Adobe Illustrator 24.0.1, SVG Export Plug-In . SVG Version: 6.00 Build 0)  -->
<svg version="1.1" id="Layer_1" xmlns="http://www.w3.org/2000/svg" xmlns:xlink="http://www.w3.org/1999/xlink" x="0px" y="0px"
	 viewBox="0 0 41.3 13.1" style="enable-background:new 0 0 41.3 13.1;" xml:space="preserve">
<style type="text/css">
	.st0{fill:#666666;}
	.st1{fill:#FFFFFF;}
</style>
<g>
	<g>
		<path class="st0" d="M34.9,7.2c1.7,0,3,1.3,3,3c0,1.5-1.1,2.9-2.8,2.9c-1.6,0-2.9-1.3-2.9-3C32,8.4,33.4,7.2,34.9,7.2z"/>
		<path class="st0" d="M8.2,7.2c1.6,0,2.9,1.2,2.9,2.9c0,1.7-1.3,2.9-2.9,2.9s-2.8-1.2-2.9-2.9C5.4,8.5,6.6,7.2,8.2,7.2z"/>
		<path class="st0" d="M0.1,8.6C0,8.7,0,8.9,0.1,9c0.1,0.3,0.2,0.5,0.3,0.8c0,0,0,0.1,0.1,0.2c0.1,0.1,0.2,0.3,0.2,0.4
			c0,0,0,0.1,0.1,0.1C1.5,11,2.4,11,3.2,11.2c0.4,0.1,0.8,0.1,1.2,0.1c0.1,0,0.1-0.5,0.1-0.7c0-0.1,0-0.2,0-0.4c0,0,0-0.1,0-0.1
			c0-2.1,1.7-3.8,3.7-3.8c1.5,0,2.7,0.8,3.3,2.1c0,0,0,0,0,0c0,0,0,0.1,0.1,0.2c0.4,1,0.4,2,0.3,2.1c-0.1,0.4-0.2,0.8-0.2,1.1
			c0,0.2,0.1,0.3,0.3,0.3c0.5,0,1.5-0.1,2.6-0.2c5.7,0,11.3,0,17,0c0.1-0.1,0-0.1,0.1-0.2c-0.2-0.4-0.3-1.1-0.3-1.5
			c0-2.1,1.7-3.8,3.7-3.8s3.7,1.6,3.7,3.7l0,0c0,0.5-0.1,0.9-0.2,1.1c0,0.1,0,0.2,0.1,0.2c0.4,0,0.9,0,1.3-0.1c0.2,0,0.4,0,0.6-0.1
			c0.2,0,0.3-0.1,0.3-0.4c0,0,0-0.1,0-0.1c0.2-0.4,0.2-0.8,0.3-1.2c0-0.1,0-0.2,0-0.3c0.2-0.1,0.2-0.1,0.2-0.4c0-0.2,0-0.4,0-0.6
			c0-0.2-0.1-0.3-0.2-0.4c-0.2-0.1-0.4-0.2-0.6-0.3c0,0,0,0,0-0.1c0-0.2,0-0.4,0-0.6c0-0.6-0.3-1-0.8-1.3c-0.3-0.1-0.6-0.2-0.8-0.3
			c-0.6-0.1-2.6-0.7-3.1-0.8c-0.7-0.1-1.5-0.2-2.3-0.3C32.6,4.1,31.9,4,31,4c-0.3,0-0.6,0-1,0c-0.2,0-0.4,0-0.6-0.1
			c-1.6-0.9-5.8-2.8-6.3-3.1c-0.8-0.4-1.7-0.5-2.5-0.6C20.1,0,19.6,0,19,0c-1.9,0-3.8,0-5.7,0.2c-0.8,0.1-1.6,0.2-2.3,0.4
			c-0.8,0.2-1.7,0.6-2.4,0.9C7.5,1.8,6.5,2.3,5.5,2.8C4.9,3.2,3.6,3.5,2.3,3.5c-0.4,0-0.7,0-1.1,0c-0.1,0-0.2,0-0.3,0
			c-0.1,0-0.2,0.1-0.1,0.2C1,4.5,0.9,5.2,0.7,6c0,0.3,0,0.6,0,0.9c0,0,0,0.1,0,0.1C0.6,7,0.5,7,0.4,7.1C0.1,7.2,0,7.4,0,7.7
			c0,0.2,0.1,0.5,0.1,0.7C0.1,8.4,0.1,8.5,0.1,8.6z M16.4,0.7c0.9-0.1,2.2-0.1,3.1,0c0.9,0,1.8,0.2,2.7,0.5c0.8,0.3,3.9,1.9,3.9,1.9
			c0.1,0,0.1,0.1,0.2,0.1l0,0c0,0-0.1,0-0.1,0c0,0-0.1,0-0.2,0.1l0,0c-0.1,0-0.1,0-0.2,0l0,0c0,0-0.5-0.2-0.6,0.1
			c0,0-0.1,0.3-0.1,0.4c0,0.3,0.2,0.5,0.2,0.5l0,0c0,0.1-0.1,0.2-0.1,0.3c-0.2,0-5-0.1-8.1-0.2l-0.9-3.2C16.2,1,16.3,0.7,16.4,0.7z
			 M8.2,3.4c0-0.3,0.4-0.6,0.5-0.6c0.2-0.2,1.3-0.7,2.8-1.3C12.6,1,14.3,1,14.9,0.9c0.1,0,0.2,0.1,0.2,0.2l0.3,3.2
			c-0.6,0-6.3-0.1-6.5-0.1C8.7,4.1,8.2,3.9,8.2,3.4z"/>
	</g>
	<path class="st1" d="M34.9,8.9c0.7,0,1.2,0.5,1.2,1.2c0,0.6-0.5,1.2-1.2,1.2c-0.7,0-1.2-0.5-1.2-1.2C33.8,9.4,34.3,8.9,34.9,8.9z"
		/>
	<path class="st1" d="M8.2,8.9c0.7,0,1.2,0.5,1.2,1.2c0,0.7-0.5,1.2-1.2,1.2S7.1,10.8,7,10.1C7.1,9.4,7.6,8.9,8.2,8.9z"/>
</g>
</svg>
