<?xml version="1.0" encoding="utf-8"?>
<!-- Generator: Adobe Illustrator 24.0.1, SVG Export Plug-In . SVG Version: 6.00 Build 0)  -->
<svg version="1.1" id="Layer_1" xmlns="http://www.w3.org/2000/svg" xmlns:xlink="http://www.w3.org/1999/xlink" x="0px" y="0px"
	 viewBox="0 0 20.5 20.5" style="enable-background:new 0 0 20.5 20.5;" xml:space="preserve">
<style type="text/css">
	.st0{fill:#666666;}
</style>
<g>
	<path class="st0" d="M9.1,11.4V2.7V0l0,0C4,0.6,0,5,0,10.2c0,5.7,4.6,10.3,10.2,10.3h0c0,0,0,0,0,0c3.7,0,6.9-1.9,8.7-4.9l0,0
		L9.1,11.4z"/>
	<path class="st0" d="M11.4,0L11.4,0v2.7v7.2l8.5,3.6l0,0l0,0l0,0l0.1,0c0.4-1,0.5-2.2,0.5-3.3C20.5,4.9,16.5,0.6,11.4,0z"/>
</g>
</svg>
