<?xml version="1.0" encoding="utf-8"?>
<!-- Generator: Adobe Illustrator 24.0.0, SVG Export Plug-In . SVG Version: 6.00 Build 0)  -->
<svg version="1.1" id="Layer_1" xmlns="http://www.w3.org/2000/svg" xmlns:xlink="http://www.w3.org/1999/xlink" x="0px" y="0px"
	 viewBox="0 0 5.5 6.3" style="enable-background:new 0 0 5.5 6.3;" xml:space="preserve">
<style type="text/css">
	.st0{fill:#FFFFFF;}
</style>
<path class="st0" d="M5.5,3.2C5.5,3.2,5.5,3.2,5.5,3.2C3.7,4.2,1.8,5.3,0,6.3c0,0,0,0,0,0c0,0,0,0,0,0C0,4.2,0,2.1,0,0c0,0,0,0,0,0
	c0,0,0.1,0.1,0.1,0.1c0.1,0.1,0.3,0.2,0.4,0.2C2,1.1,3.4,2,4.8,2.8C5,2.9,5.2,3,5.5,3.2C5.5,3.1,5.5,3.2,5.5,3.2z"/>
</svg>
