<?xml version="1.0" encoding="utf-8"?>
<!-- Generator: Adobe Illustrator 24.0.1, SVG Export Plug-In . SVG Version: 6.00 Build 0)  -->
<svg version="1.1" id="Layer_1" xmlns="http://www.w3.org/2000/svg" xmlns:xlink="http://www.w3.org/1999/xlink" x="0px" y="0px"
	 viewBox="0 0 11.6 18.2" style="enable-background:new 0 0 11.6 18.2;" xml:space="preserve">
<style type="text/css">
	.st0{fill:#666666;}
</style>
<g>
	<path class="st0" d="M6.4,3c0.9,0.1,1.7-0.5,1.7-1.4S7.5,0.1,6.6,0C5.8-0.1,5,0.6,4.9,1.4C4.8,2.2,5.5,2.9,6.4,3"/>
	<path class="st0" d="M5,3.6c0.3-0.2,0.7-0.4,1.1-0.3c0.5,0,1,0.4,1.3,0.8l1.6,3l2.2,1.4c0.2,0.1,0.3,0.4,0.3,0.6
		c0,0.4-0.4,0.7-0.8,0.6c-0.1,0-0.2-0.1-0.3-0.1L8,8.1C8,8,7.9,7.9,7.9,7.9L7.3,6.7l-0.7,3l2.9,3.2c0.1,0.1,0.1,0.2,0.1,0.3l0.8,3.8
		c0,0.1,0,0.1,0,0.2c0,0.6-0.6,1-1.2,0.9c-0.5,0-0.9-0.4-1-0.8l-0.7-3.6l-2.3-2.4l-0.5,2.3c0,0.1-0.2,0.3-0.2,0.4L2,17.7
		c-0.2,0.3-0.6,0.5-1,0.5c-0.6,0-1.1-0.5-1-1.1c0-0.2,0.1-0.3,0.1-0.4l2.1-3.3L4,6.2L2.8,7.1L2.2,9.7c-0.1,0.3-0.4,0.6-0.8,0.6
		c-0.4,0-0.7-0.4-0.7-0.7c0,0,0-0.1,0-0.1l0.7-3c0-0.1,0.1-0.2,0.2-0.3L5,3.6z"/>
</g>
</svg>
